<mxfile host="Electron" modified="2024-12-03T05:29:03.750Z" agent="Mozilla/5.0 (Windows NT 10.0; Win64; x64) AppleWebKit/537.36 (KHTML, like Gecko) draw.io/23.0.2 Chrome/120.0.6099.109 Electron/28.1.0 Safari/537.36" etag="YF6p0y0w8iYVL2hP4YWt" version="23.0.2" type="device">
  <diagram id="C5RBs43oDa-KdzZeNtuy" name="Page-1">
    <mxGraphModel dx="1405" dy="-351" grid="1" gridSize="10" guides="1" tooltips="1" connect="1" arrows="1" fold="1" page="1" pageScale="1" pageWidth="827" pageHeight="1169" math="0" shadow="0">
      <root>
        <mxCell id="WIyWlLk6GJQsqaUBKTNV-0" />
        <mxCell id="WIyWlLk6GJQsqaUBKTNV-1" parent="WIyWlLk6GJQsqaUBKTNV-0" />
        <mxCell id="9VNOGcir4t3zfCMRs3BQ-56" value="Диаграмма деятельности:" style="text;html=1;align=center;verticalAlign=middle;resizable=0;points=[];autosize=1;strokeColor=none;fillColor=none;fontSize=25;" parent="WIyWlLk6GJQsqaUBKTNV-1" vertex="1">
          <mxGeometry x="130" y="1333" width="330" height="40" as="geometry" />
        </mxCell>
        <mxCell id="WFDRFSRvHRVxW06Eg9aG-0" value="Диаграмма последовательности:" style="text;html=1;align=center;verticalAlign=middle;resizable=0;points=[];autosize=1;strokeColor=none;fillColor=none;fontSize=25;" parent="WIyWlLk6GJQsqaUBKTNV-1" vertex="1">
          <mxGeometry x="1290" y="1300" width="410" height="40" as="geometry" />
        </mxCell>
        <mxCell id="Xd-OEKQsW6fIhWHLVpuV-12" value="Система библиотеки" style="swimlane;whiteSpace=wrap;html=1;" parent="WIyWlLk6GJQsqaUBKTNV-1" vertex="1">
          <mxGeometry x="-680" y="1580" width="660" height="930" as="geometry" />
        </mxCell>
        <mxCell id="Xd-OEKQsW6fIhWHLVpuV-13" value="Читатель" style="swimlane;whiteSpace=wrap;html=1;startSize=23;" parent="Xd-OEKQsW6fIhWHLVpuV-12" vertex="1">
          <mxGeometry y="20" width="310" height="910" as="geometry" />
        </mxCell>
        <mxCell id="9VNOGcir4t3zfCMRs3BQ-61" value="" style="shape=ellipse;html=1;fillColor=strokeColor;fontSize=18;fontColor=#ffffff;" parent="Xd-OEKQsW6fIhWHLVpuV-13" vertex="1">
          <mxGeometry x="135" y="40" width="40" height="40" as="geometry" />
        </mxCell>
        <mxCell id="9VNOGcir4t3zfCMRs3BQ-62" value="приходит в библиотеку" style="shape=rect;rounded=1;html=1;whiteSpace=wrap;align=center;" parent="Xd-OEKQsW6fIhWHLVpuV-13" vertex="1">
          <mxGeometry x="105" y="134" width="100" height="40" as="geometry" />
        </mxCell>
        <mxCell id="9VNOGcir4t3zfCMRs3BQ-63" style="edgeStyle=orthogonalEdgeStyle;rounded=0;orthogonalLoop=1;jettySize=auto;html=1;" parent="Xd-OEKQsW6fIhWHLVpuV-13" source="9VNOGcir4t3zfCMRs3BQ-61" target="9VNOGcir4t3zfCMRs3BQ-62" edge="1">
          <mxGeometry relative="1" as="geometry" />
        </mxCell>
        <mxCell id="GjfBDfnlgmoB8biZwGHi-13" style="edgeStyle=orthogonalEdgeStyle;rounded=0;orthogonalLoop=1;jettySize=auto;html=1;" edge="1" parent="Xd-OEKQsW6fIhWHLVpuV-13" source="GjfBDfnlgmoB8biZwGHi-5" target="GjfBDfnlgmoB8biZwGHi-12">
          <mxGeometry relative="1" as="geometry" />
        </mxCell>
        <mxCell id="GjfBDfnlgmoB8biZwGHi-5" value="выбирает книгу из каталога" style="shape=rect;rounded=1;html=1;whiteSpace=wrap;align=center;" vertex="1" parent="Xd-OEKQsW6fIhWHLVpuV-13">
          <mxGeometry x="110" y="235" width="100" height="40" as="geometry" />
        </mxCell>
        <mxCell id="GjfBDfnlgmoB8biZwGHi-16" style="edgeStyle=orthogonalEdgeStyle;rounded=0;orthogonalLoop=1;jettySize=auto;html=1;entryX=0.5;entryY=0;entryDx=0;entryDy=0;" edge="1" parent="Xd-OEKQsW6fIhWHLVpuV-13" source="GjfBDfnlgmoB8biZwGHi-12" target="GjfBDfnlgmoB8biZwGHi-14">
          <mxGeometry relative="1" as="geometry">
            <Array as="points">
              <mxPoint x="85" y="355" />
            </Array>
          </mxGeometry>
        </mxCell>
        <mxCell id="GjfBDfnlgmoB8biZwGHi-12" value="" style="rhombus;whiteSpace=wrap;html=1;" vertex="1" parent="Xd-OEKQsW6fIhWHLVpuV-13">
          <mxGeometry x="135" y="330" width="50" height="50" as="geometry" />
        </mxCell>
        <mxCell id="GjfBDfnlgmoB8biZwGHi-14" value="выбор другой книги" style="shape=rect;rounded=1;html=1;whiteSpace=wrap;align=center;" vertex="1" parent="Xd-OEKQsW6fIhWHLVpuV-13">
          <mxGeometry x="35" y="400" width="100" height="40" as="geometry" />
        </mxCell>
        <mxCell id="GjfBDfnlgmoB8biZwGHi-19" value="книга доступна" style="text;html=1;align=center;verticalAlign=middle;resizable=0;points=[];autosize=1;strokeColor=none;fillColor=none;" vertex="1" parent="Xd-OEKQsW6fIhWHLVpuV-13">
          <mxGeometry x="170" y="318" width="110" height="30" as="geometry" />
        </mxCell>
        <mxCell id="GjfBDfnlgmoB8biZwGHi-23" style="edgeStyle=orthogonalEdgeStyle;rounded=0;orthogonalLoop=1;jettySize=auto;html=1;entryX=0.5;entryY=0;entryDx=0;entryDy=0;" edge="1" parent="Xd-OEKQsW6fIhWHLVpuV-13" source="GjfBDfnlgmoB8biZwGHi-20" target="GjfBDfnlgmoB8biZwGHi-22">
          <mxGeometry relative="1" as="geometry" />
        </mxCell>
        <mxCell id="GjfBDfnlgmoB8biZwGHi-20" value="получает книгу" style="shape=rect;rounded=1;html=1;whiteSpace=wrap;align=center;" vertex="1" parent="Xd-OEKQsW6fIhWHLVpuV-13">
          <mxGeometry x="110" y="510" width="100" height="40" as="geometry" />
        </mxCell>
        <mxCell id="GjfBDfnlgmoB8biZwGHi-22" value="" style="ellipse;html=1;shape=endState;fillColor=strokeColor;" vertex="1" parent="Xd-OEKQsW6fIhWHLVpuV-13">
          <mxGeometry x="145" y="610" width="30" height="30" as="geometry" />
        </mxCell>
        <mxCell id="Xd-OEKQsW6fIhWHLVpuV-51" value="Библиотека" style="swimlane;whiteSpace=wrap;html=1;startSize=23;" parent="Xd-OEKQsW6fIhWHLVpuV-12" vertex="1">
          <mxGeometry x="310" y="20" width="350" height="910" as="geometry" />
        </mxCell>
        <mxCell id="GjfBDfnlgmoB8biZwGHi-4" style="edgeStyle=orthogonalEdgeStyle;rounded=0;orthogonalLoop=1;jettySize=auto;html=1;entryX=0.5;entryY=0;entryDx=0;entryDy=0;" edge="1" parent="Xd-OEKQsW6fIhWHLVpuV-51" source="GjfBDfnlgmoB8biZwGHi-2" target="mxRYtGgu3K46Ii0dFBdr-16">
          <mxGeometry relative="1" as="geometry" />
        </mxCell>
        <mxCell id="GjfBDfnlgmoB8biZwGHi-2" value="приходит в библиотеку" style="shape=rect;rounded=1;html=1;whiteSpace=wrap;align=center;" vertex="1" parent="Xd-OEKQsW6fIhWHLVpuV-51">
          <mxGeometry x="125" y="134" width="100" height="40" as="geometry" />
        </mxCell>
        <mxCell id="GjfBDfnlgmoB8biZwGHi-8" style="edgeStyle=orthogonalEdgeStyle;rounded=0;orthogonalLoop=1;jettySize=auto;html=1;entryX=0.5;entryY=0;entryDx=0;entryDy=0;" edge="1" parent="Xd-OEKQsW6fIhWHLVpuV-51" source="mxRYtGgu3K46Ii0dFBdr-16" target="GjfBDfnlgmoB8biZwGHi-6">
          <mxGeometry relative="1" as="geometry" />
        </mxCell>
        <mxCell id="mxRYtGgu3K46Ii0dFBdr-16" value="" style="rhombus;whiteSpace=wrap;html=1;" parent="Xd-OEKQsW6fIhWHLVpuV-51" vertex="1">
          <mxGeometry x="150" y="230" width="50" height="50" as="geometry" />
        </mxCell>
        <mxCell id="GjfBDfnlgmoB8biZwGHi-6" value="предлагется его оформить" style="shape=rect;rounded=1;html=1;whiteSpace=wrap;align=center;" vertex="1" parent="Xd-OEKQsW6fIhWHLVpuV-51">
          <mxGeometry x="230" y="310" width="100" height="40" as="geometry" />
        </mxCell>
        <mxCell id="GjfBDfnlgmoB8biZwGHi-10" value="билета нету" style="text;html=1;align=center;verticalAlign=middle;resizable=0;points=[];autosize=1;strokeColor=none;fillColor=none;" vertex="1" parent="Xd-OEKQsW6fIhWHLVpuV-51">
          <mxGeometry x="205" y="230" width="90" height="30" as="geometry" />
        </mxCell>
        <mxCell id="GjfBDfnlgmoB8biZwGHi-15" value="регистрирует выдачу книги" style="shape=rect;rounded=1;html=1;whiteSpace=wrap;align=center;" vertex="1" parent="Xd-OEKQsW6fIhWHLVpuV-51">
          <mxGeometry x="125" y="400" width="100" height="40" as="geometry" />
        </mxCell>
        <mxCell id="GjfBDfnlgmoB8biZwGHi-3" style="edgeStyle=orthogonalEdgeStyle;rounded=0;orthogonalLoop=1;jettySize=auto;html=1;entryX=0;entryY=0.5;entryDx=0;entryDy=0;" edge="1" parent="Xd-OEKQsW6fIhWHLVpuV-12" source="9VNOGcir4t3zfCMRs3BQ-62" target="GjfBDfnlgmoB8biZwGHi-2">
          <mxGeometry relative="1" as="geometry" />
        </mxCell>
        <mxCell id="GjfBDfnlgmoB8biZwGHi-7" style="edgeStyle=orthogonalEdgeStyle;rounded=0;orthogonalLoop=1;jettySize=auto;html=1;" edge="1" parent="Xd-OEKQsW6fIhWHLVpuV-12" source="mxRYtGgu3K46Ii0dFBdr-16" target="GjfBDfnlgmoB8biZwGHi-5">
          <mxGeometry relative="1" as="geometry" />
        </mxCell>
        <mxCell id="GjfBDfnlgmoB8biZwGHi-17" style="edgeStyle=orthogonalEdgeStyle;rounded=0;orthogonalLoop=1;jettySize=auto;html=1;entryX=0;entryY=0.5;entryDx=0;entryDy=0;" edge="1" parent="Xd-OEKQsW6fIhWHLVpuV-12" source="GjfBDfnlgmoB8biZwGHi-12" target="GjfBDfnlgmoB8biZwGHi-15">
          <mxGeometry relative="1" as="geometry">
            <Array as="points">
              <mxPoint x="235" y="380" />
              <mxPoint x="235" y="440" />
            </Array>
          </mxGeometry>
        </mxCell>
        <mxCell id="GjfBDfnlgmoB8biZwGHi-21" style="edgeStyle=orthogonalEdgeStyle;rounded=0;orthogonalLoop=1;jettySize=auto;html=1;entryX=1;entryY=0.5;entryDx=0;entryDy=0;" edge="1" parent="Xd-OEKQsW6fIhWHLVpuV-12" source="GjfBDfnlgmoB8biZwGHi-15" target="GjfBDfnlgmoB8biZwGHi-20">
          <mxGeometry relative="1" as="geometry" />
        </mxCell>
        <mxCell id="Xd-OEKQsW6fIhWHLVpuV-68" value="писал на plantUML так как там легче строить связи" style="text;html=1;align=center;verticalAlign=middle;resizable=0;points=[];autosize=1;strokeColor=none;fillColor=none;fontSize=25;" parent="WIyWlLk6GJQsqaUBKTNV-1" vertex="1">
          <mxGeometry x="1185" y="1350" width="620" height="40" as="geometry" />
        </mxCell>
        <mxCell id="GjfBDfnlgmoB8biZwGHi-9" value="билет есть" style="text;html=1;align=center;verticalAlign=middle;resizable=0;points=[];autosize=1;strokeColor=none;fillColor=none;" vertex="1" parent="WIyWlLk6GJQsqaUBKTNV-1">
          <mxGeometry x="-320" y="1828" width="80" height="30" as="geometry" />
        </mxCell>
        <mxCell id="GjfBDfnlgmoB8biZwGHi-18" value="книга недоступна" style="text;html=1;align=center;verticalAlign=middle;resizable=0;points=[];autosize=1;strokeColor=none;fillColor=none;" vertex="1" parent="WIyWlLk6GJQsqaUBKTNV-1">
          <mxGeometry x="-660" y="1918" width="120" height="30" as="geometry" />
        </mxCell>
        <mxCell id="GjfBDfnlgmoB8biZwGHi-24" value="" style="shape=image;verticalLabelPosition=bottom;labelBackgroundColor=default;verticalAlign=top;aspect=fixed;imageAspect=0;image=data:image/png,iVBORw0KGgoAAAANSUhEUgAAA4sAAAMuCAIAAAA/oAFpAAAAKnRFWHRjb3B5bGVmdABHZW5lcmF0ZWQgYnkgaHR0cHM6Ly9wbGFudHVtbC5jb212zsofAAACsWlUWHRwbGFudHVtbAABAAAAeJytVU1PE1EU3b9fccMKFiVK0GgXhihoghCJWPZDGcnE9k0znWLcURsTkxIXbjQuIOiGZWlaW1o6/Qv3/SPPfa+lLR9a0Uk603n33HPPux9vloqxF8WlfE552TiMiI844a454Baeda6Z99yUd1UALMgGBU/HNMPH3DZlazvn2gx5ReLjK5AOd7nGjYGZv10CHInZcvzknqnyGZmPCPWJW87jiE+UukkPpR6BM0382XyApUFcJ1MeqTIVxccWdANB2lkaeK9z0+xDRAOWHre5CTLHyrWpFFT5FASwYBVmB9s3VeI2gSThU+ShDnECgFBkJoFDC7F60wj9Pk454uuKXlOdQuJvdtoCVQc/PIdCUCrxATIZeAyUI7Tk11S4D3f3f3zH8lReLpaclEE+mYsJb8gmXH/c+pehPILXNZtQfq7oX8pQD4ZbBfuKtXOXGlm9XCdf7/x9O5RFN+4oGuHWd00PRTZPh4glQ3LGvdTQJgMxqfckLUhLitIngDjyKx6Wc2yuyFSsgCYmS5JFg0s4x5pjhOe+VNGiu+POqPbI+Z9rJiyubhOxZWNyZiS2gtOovdFjmtGvS3u65pZaj2pTcQJRbSfy8CLPNZeg9kUz2znscPN/NbPtsPEp/CEIO/PnwylMXIejoQaHVBs2p6Yt/XZqd9URldcM962OQ8lz37bf4NRBOyxBrHw31EYO53lmfY32/KgYhJruzi/cWVicf7jtx9692Yx+o8O3mrJhvhDkfIqDvD+nZp9trFExLEVZn3aCYhwF26UYznNq1dvz6GVJCy5NLwq+Xl1+PlygFb0XRKHO+zpWq1vrI8D9xdTjIKZNP4IM2lpXy/5rr4R5WNHZcCfQu2nKvHqaeqDWPL1b8nbB7Wv1JARv9A62TfUL7JAlD1V2NwMAAIAASURBVHhe7N0JWBRH3j9wVEBADRpFQBFERUAi4IGi0URJXjER/Ud31ai7HqtGV3HNrm9MiIJEQOKZKEaNqzGu58YkaqIxHgjErBevcqiACkrwAFFBBAURmP9vp5batmd6aIYZmGG+n6cfn+7q6urqmlT7teeImQIAAAAAwJCYiQsAAAAAABoUEioAAAAAGBYkVAAAAAAwLEioAAAAAGBYTDGhXr9+fe3adcuWLY+K+pT+/PzzdVQirgQAAAAADcS0Eurdu3fDwj7ZuPGrtLRbOTmP2ELrGzZsDQ0Np73iAwAAAACg3plQQk1KSl68ODwrK59nU+FC5YsWhV+8mCQ+DAAAAADql6kk1Lt371I8VQ2mooVCKp6kAgAAADQsU0mooaGST0+FC9VZvHiJ+GAAAAAAqEcmkVCvXbv25Zdfq+ZRtcvGjduuXr0mbgIAAAAA6otJJNSYmC+EX43SvFDNdevWi5sAAAAAgPpiEgk1Onq5ahLVsERFfSpuAgAAAADqi0kk1GXLapdQIyORUAEAAAAajEkkVDxDBQAAADAiJpFQ8TlUAAAAACNiEgkV3+UHAAAAMCImkVAV+D1UAAAAAONhKgkV/08pAAAAAGNhKgmVJCUlU0iVepJK5RRPL15MEh8GAAAAAPXLhBKqQvkkNSzsk40bvxJ+cYrWN2zYGhqKp6cAAAAABsG0Eipz/fr1tWvXLVu2/A9/mEx/fv75OioRVwIAAACABmKKCZVbtWqVuAgAAAAAGhoSKgAAAAAYFiRUAAAAADAsSKgAAAAAYFiQUAEAAADAsCChAgAAAIBhQUIFAAAAAMPSOBPqP//5z1UyjBkzRlykDrUmPgEAAAAA6E3jTKgyrcIzVAAAAADDg4QKAAAAAIYFCRUAAAAADAsSKgAAAAAYFiRUAAAAADAsSKgAAAAAYFiQUAEAAADAsCChAgAAAIBhQUIFAAAAAMOChAoAAAAAhgUJFQAAAAAMCxIqAAAAABgWJFQAAAAAMCxIqAAAAABgWJBQAQAAAMCwIKECAAAAgGFBQgUAAAAAw4KECgAAAACGxXQT6tOnT9999136U7wDAAAAABqUiSbUysrK0NDQK1eu0J+0Lt4NAAAAAA3HRBPqqlWrrl27Riv0J97rBxPx6FHRsmUrlixZFhoa2fgWui66OrpG8WUDmIaCgsLIyOVLlkSpzg4DXI4dixNfwIuKioo+/XRleHjjvF81voXuwNHRK+lVE7+QdWCKCXX79u3/+te/+CatU4lgP0DjtHz5qitXcnJyHjXWha6OrlF82QCmYdmylUY0wb/++p+7du0RX4PAqlVrjOhysOQo78ArVqwWv5B1YHIJ9eeff/7uu+9EhVRC5aJCgEZm6dJo1XtKI1s++WSZ+LIBTENYWJTqjDDk5ZNPIsXXIBAZ+anqIVgMfImIiBa/kHVgWgk1OTl5w4YN4lIlKqe94lKARoTSm+oNpZEtSKhgssLCIlVnhCEvUVGfiq9BAAnVGJelS5FQtXLr1q2IiAhxqQDtpTriUoDGAgkVoBFDQsXS4AsSqjaKioo+/vjj8vJy8Q4B2kt1dPs5XwDDgYQK0IghoWJp8AUJtdbkR085QRbASCGhAjRiSKhYGnxBQq21Wr19X+OHAQCMFBIqQCOGhIqlwRck1NrR4itQGr5QBWC8kFABGjEkVCwNviCh1oLWPyOl9kepAIya5oSalZW/b99Pn3/+5T/+8e358+mqFYxiQUIFk6U5oRrgBNcuoZ4+nXroUJzqcv16nmplY182bNj2zTeHaSU+/v8+/XStagVDW5BQ5arjT/GLftgfwNhpSKhbt+6xt3do2bJlr159PTx6mJtbjBjxzm+/FarWNPAFCRVMloaEapgTXLuE+vvfT2jatKmNgJWVlZmZWVzcedXKxr4cOHC8Q4eOY8aMd3buvG3bXtUKhrYgocqik/+dKf+fowI0AlIJlf6N3qxZsxkz5vCHEOfPp7/zztgbNx6oVjbwBQkVTJZUQjXYCa51QvX3f1VY8t13PzfWhErL2bNXvv76n6dOJanuMsAFCbVm+fn5oaGhlZWV4h21RC1QO9SaeAeAEZJKqL169fXy8pZ6oPLBB4s3bNjG1jMz740dO3HWrHl87/bt+958c7inp9fAga9FRa2mkhUrYkaOHCNa/va3EFafbrUBAYFeXj1HjHjnp58ShGehaidPnuMlS5ZEU8mRI7/kKP8Gor+WfH379OnT/733gi9f/o1XEy1IqGCypBKq/AkeG3v2//2/3x85copt7t37o3AW/+UvH7ByzfMxLi5ReNT48X9QPSlb9JdQa9vz2t61srML5sz569KlK1iFQ4fi+GWmpd2i9R07vmObNLwxMVt4x+hfC1Onvqd2F1u2bdv75z+/zytouPcKF2FTbPxv3LjPNj/6aMnatZvZutSwLF4cuWrVF2z9++9/fvvtUXSxb7wx/J//PMRPQaPRr98AD48er7/+xqZN/+DlogUJtWbbtm17+vSpuFQr1A61Ji4FMEJqE2pKyo0mTZqEh6v/y4CWV199fd68/2Xrf/3rR1S5e3cPtrl8+Tpzc4vg4AW7dx+g+yO7sdLNev36rbTQDY7+XmTre/f+QLvoJtiiRYuQkPA9ew5SU1ZWVkeP/oufxcbGZuLEqWyT/uZo3bpNs2bN2BtbYWHL6B66a9f+LVt29+3rTzdKUSf5goQKJkttQpU/wenfh+3atafpyXfRBH/55bZsClNypaTLyjXPR5YXP/98Ex01ffqfW7V6SfWkbNFfQq1tz7W4a/3yy0UaroiIlbT+97/vYpd57VoetUlnpAjLWqbh5YmTltWrN3Ts2EntLrYsWhTRo8crvILUvVe0CJtio8Gfl1OgpCzO1qWGZdiwt6dMmUkr3357hD1u37nze/rT3Nx8//5jrM6SJdFffPEVlVNPqM7BgydEfWALEioAaENtQj1y5BTdzr76SvITTvwu+a9/pVCIpH/Hs7sk/RudQiR/zKC60G0xICCQb9648aBt23affLKcl1BTdJdk63QW2rS1bc2eatBtmjYtLZurfvQqOTlLwzt6SKhgstQmVJkTPC4u0c7OfuHCUOGuqKjVLi6ubP2jj5bwQCNcVOcjBTsqYc/wNm3a3iAJVbue59TyrvXzz7/SPXDt2s0soVJlOpYW/vwyRyWGapdQRfde1UVmQpUaFp5QBw587e23R/Fm33pr5ODBQ/kmW27efGhv77Bx49eicrYgoQKANtQm1KNH/0W3Mw3v2vC75BtvDP/DH/60dOkKdpc8duw0Hcgfgqouonv98eNnqD61QP8Ef//9D+fPX/jaawGenl78LHSHHTNmfGhoVHZ2QadOLj/9lMATalJS5ty5fxs4cLCHRw86e5MmTbZv36d6xhwkVDBhahOqnAk+YsQ77ds7dOzoJIxWOcq05O7uydaFgUbzfKS4Zm5uwdYbKqFq1/OcWt61aJk8eYa5ufmECZNbtmz1zjtjqTL/jARbaHh79/ajmxtbAgKGCRMq20XNrlgRc+lSdo5EQhXde1UXmQlValgooVLLkyZNa97cavnydbzZTz9d+/LLbfnmunV/pyt95RWfiROniv5T4QsSKgBoQ21CTU+/06xZsw8/DFPdxRZ2l6SkSLeq1NSb/C75448n6T74yy8XVQ9hi+he/8MPsVR/9uy/0J2RL+yjq+wsdIelOvRPfPobrk+f/lTIE6qPT2+6s+/c+T3F4pMnz9Hff1RH9Yw5SKhgwtQmVDkTnCYmzb5u3dznzPmrcNfMmXMHDRrC1oWBRvN8DAtb5uzcma03VELVruc5tbxr0b+ira2tlyyJtrCwpGoU3ShHUui8efMhb4GGl3rLj3377f8nTKhs19/+FtK3r7+dnf2FC1dVE6rqvVd1kZlQpYaFEqqfnz9dCN1yKYbyZteu3WxlZcU39+79gboXFDSa7tJSd35jSqg3b95MVKe0tFRcFQD0TG1CpYXuyB07OmVm3hMW8k2699ENjv7KYf+25ndJ+hd/06ZN+Qf5VRfRvZ7usFRf6lkOv8P6+vZp1679+vVbc6oTKt216YYbH/9/rCat0CYSKoCI2oSaI2OCjx49LkeZt5o3t/r22yO8DuUn/tUcHmhqnI/Dhwfx98EbKqFq1/Oc2ty1srLyPTx6LFjwcc6/bzuf0tAlJWVSLuzSpVtIyCe8mjA75ki/y0+t0e3u88+/FCVUtfde1UVmQlU7LDmCd/np1MJ/pfz5z/P5M1fhQm3+6U+zVctzjCuhTpkyhV7dFgL0Dw4au/T0dHFVANAzqYRKd2r6WyQgYBj7Kv2NGw927drv5eXNfoyG7n0vvWRL9zL2XWDhXfKdd8bSP6ZPnDjLjqI7o7BZ0b2eljFj3qW7Lf9gAJ1u9+4DbJ3fYfft+yk4eAF7C4kl1KtXc83NLZYtW5Oj/J7sa68FNGnSBAkVQEQqodY4wfnXcT78MIzyE82yK1dyKMGYm5v//POvbBcPNJrnI90EaO/Ond+zzfpPqFr3nC3y71o0aHwM+TelaNm//yjlHP6zJHISKsVTCsF0CXT3EyVUqXuvaKkxoWoYlhxBQg0P/9TWtjX7vYLDh+Pp7OwzuNQaf2h65swl+gcP9ZOfXbgYWUJ9/fXXhSWnTv37U9tIqAD1Tyqh0kIpk+5x9O/J5s2tmjVrZmdnz7/Sy8rpblV9A/rvXTIt7XZQ0Gi6y7/8clsLC8s33hgubFP1Xp+RcXfcuEl0l2zduo2NjQ39GR39GT+L8D7OFv4uP52U2qde0b9yQ0Oj6FgkVAARqYSaU9ME5wk1O7vAz8+fMllIyCe+vn2+/vqfvAVhoJGajxTdzNShCqpdytFPQtWu53yReddi7+/z2CpMqDnKN9N9fHqz9/o1J1Q2PpSb6Z/6S5ZE56h8DlXq3itaeFNq0UVpHhaeUClwjx//BzopXSb9OWHCZBbBU1JutGzZqm1bO+o89XbkyDFS/wevxpZQv/rqqyFDhvj4+Pzxj3+8fv06Lz958uR4gcWLF7PyyMjI3bt382rcJ598Mnjw4J49ewYGBn777bfCXWpPQe2wlqmTUVFRwh89pU5SYb9+/QYOHLhgwYLCwkIq3LJli7A/DJ2UHXLo0KERI0b4+vqOHTv2woULvClF7S8EQE80JFS2XLqUfezY6f/7vwzVXRoWunnRnfrChauqu9QulGvpLPQPceGntWpcrlzJOX78TFraLdVdwgUJFUyWhoTKFu0muNpF7XykhEpRSVTz8uXfdJtQ67io7XmNi3Z3LSNd6Jb+88+/pqbeFBbShf/yy0X6pw4NoOohfGlUCXXt2rX0D5HPPvvsyJEjo0aNateu3cOHD9muv//977S5R2nChAn9+/dn5W+88caHH37I1oWokb179x49enTJkiX0b8SzZ8+ycqlTUDu0SY1v3bp1wIABr7zyCm9qzZo1q1atOnbs2IEDNN9epeBLhYmJiawzQUFBvXr1YuuxsbEKZQJu2bLlp59+euLECTo7nS4lJYW3VtsLAdCTGhNqI1iQUMFk1ZhQ9b18883hYcPeFhVSoHFwcFStnNNACRWLXpfGk1CfP3/epk2blStXsl206eLiEhoayjY3bNjQtWtXth4dHS0/2FVUVHTo0OGbb75RaDyFsJ2ff/6ZQm15eXl1G/91//590UPfBQsWjBgxgm9Sm3Z2duvWreMlU6dOpSTKN7W+EADdQkIFaMQaPKHWdkFCbXxL40mo169fp/VLly7xvX/605+CgoLYOsVK/lxTFOz8/f0p21HQ3LJlS0FBASsnu3btmjFjRu/evd977z0WNzWcgrczb948Dw+PNWvW8Dr5+fkhISFDhw7t2bOnl5dXkyZNfvrpJ75XlFCpcbN//xrF7CVLloSFhVGvhg0b5u3tzStocSEA+oCECtCIIaFiafCl8STU5ORkWs/KyuJ7g4ODKRey9b/97W9vvvkmWxcFO2qTSj755JNXX33VwcEhNzeX7YqNjaU4OG7cuK5du7LPm2o4haidgIAA/htYfn5+b7/99tGjR1NTU9PS0iwsLPbv389bECXUc+fO0Sk++OCDaIENGzbwClpcCIA+IKECNGJIqFgafGk8CfXx48dNmjQ5cOAA3/vaa6/NmDGDrdOB//u//8vWRcGOvzn+7Nmz5s2b79ixg21ygYGB8+fPV2g8hWo7u3btonWKidTDq1evsl20QpsaEurDhw+bNm0q+m6WUF0uBECHkFABGjEkVCwNvjSehEomTJjg4+PDnh3u3LmT0uS5c+cePXpESc7c3Dw5OZlVUxvsKNVRLqTWEhISSktL+Zf0s7OznZ2d+WdP1Z5CbTvsa09PnjyxsLDYuHEjrRcVFQ0bNowO0ZBQyR//+McuXbrwb0elpaUdP36cVrS4ELYLQB+QUAEaMSRULA2+NKqEeu/ePaqg/PGt1jY2Np999hkVLl++vF+/focOHeJHiYKdmRLlyK5du7JDHjx48NJLL7Vv397FxYXKx48fz9+yV3sK1XaEn0ONiYmxtLR0cHBo2bLl6tWrW7RooTmhlpSUTJs2jZLoyy+/TJXpz02bNim0uhAA/UFCBWjEwsKiVGeEIS+UQcXXIICEaoyLMSVUmW7dupWamvrkyRPxjtqoqKi4fv365cuXHz16JN5X+1NQI5cuXSoqKhLvkPb48WM6RXZ2NvVEvA/AACxduoz9v0ka60JXh4QKJissLNKIJvj//d/VL77493uVUqKioo3ocrDkKO/AERGNLqECQD1ISPjlH//4RvW20mgWurr4+F/Elw1gGmJj47dvN44JTvH0b39b+OzZM/E1CPzyy6ldu75VPRaLwS47duz75Rdd3oGRUAFMyLfffrd8+YpPP22ES0RE1N69e8UXDGBKvv32W9WpYYDLhg0b1f4Auch33zXa+1XjW5R34H+KX8K6MemE+q9//UtcBAC6gykGYOwwi3UOQyqTSSfUVatWiYsAQHcwxQCMHWaxzmFIZUJCBQB9wRQDMHaYxTqHIZUJCRUA9AVTDMDYYRbrHIZUJiRUANAXTDEAY4dZrHMYUplMOqHi08oAeoUpBmDsMIt1DkMqk0knVAAAAAAwQEioAAAAAGBYkFABAAAAwLAgoQIAAACAYTHphIpPKwPoFaYYgLHDLNY5DKlMJp1Q8YsPAHqFKQZg7DCLdQ5DKhMSKgDoC6YYgLHDLNY5DKlMSKgAoC+YYgDGDrNY5zCkMiGhAoC+YIoBGDvMYp3DkMpk0gkVn1YG0CtMMQBjh1mscxhSmUw6oWqwe/fuCKXo6Ojt27c/fPhQXAMAAAAA9AMJVb3AwEAfH5+5c+fOmjXLz8/P1tY2LS1NXAkAAAAA9AAJVT1KqPPnz2frVVVV3t7eH3744dOnT2/fvs3rlJaW3rp1q7Kykm0+e/YsKSkpOTm5vLyc1yElJSW3BJ48eSLcy9y7d492UeOPHz8W7xOgc127di0+Pp4qsxI6kHrF1svKyqic/pSqX1BQIOwJw3pbUVFx4cKFM2fOFBcX88Op8bt37wpbo/rUCK0XFhaKnivfuXOHBkRYAgAAAKAdJFT1RAnVx8dnyZIlFMs6d+782WefsfKRI0eOHj2arScmJjo7O1M1Ly+vrl27pqamsnISExNjY2PjpWRlZbVt2za+i6MDnZycqEKLFi1o/ebNm+IaCsXVq1d9fX1dXFyGDh3q4OBw4MABhfLAPXv2sAozZ840MzM7fvy4VP1FixaxblhbW7PTkQwlNzc3Dw+PQYMG2dnZHTlyhLVAjTdp0oTaYZvffvsttT9lyhRa37FjB10mjQzblZKSYmFhQYmWbQIAAADUhUknVA2fVqaESvGOQmpwcPDAgQOHDRuWn59P5efOnaMQef78+dWrV1NapcyqUD6A9PT0XLhwITt29uzZvXv35ult7dq1Q4YMYet9+vSRSqgsaD5//pwqh4WFiSpQa35+ftOnT2ePbOmMjx49Eh5IXbK3t2/Tpg1LqFL1mf79+1PE5C37+/uHhoayzYMHD1I77EEvNU6NzJs3j+16/fXX+/XrxxJqWVlZu3bteBqeM2fOuHHj2DoAp2GKAYBRwCzWOQypTCadUDX84gMl1FdffTU6OjoqKmratGkuLi6nTp1iu9asWdOxY0fKqZRWWUlGRoaZmRmLsCQrK4s2c3Jy2CY1Qq2xdQ0JlU6UmJh44MABOtfhw4dFFTIzM6lN4XvuDEuoFEP79u27detW6hhLjVL1GWFCvXHjBtVMSEhIqmZra3v27FmFsvEvvviC2iwuLk5NTaXNBQsWsIRKPvjgg7Fjx9IKxVk6JDY29j+tA1TTMMUAwChgFuschlQmJFT1hO/yk48//tjLy4ut375929LSctCgQXxvfHy8ubk53ywtLaXMx/NrcHDw5MmT2bqGhEropP369evVq9elS5dEFShBCk/BsYS6cePGAQMGVFVV8YQqVZ8RJlSq2bRp08AXnT59WqFsnKrNmTOHcurMmTP//ve/CxMqBfHmzZvfu3fvq6++cnNz48+MATgNUwwAjAJmsc5hSGVCQlVPlFAporVq1UqhfLv89ddfnzhxYqdOnaiQ7WUPLO/cucM209PThZt+fn5r1qxh6xoSKv84aWRkpL+//4v7FdnZ2dQm/SkqpwNjYmLs7OySkpJokydUqfqMMKGymsJvgHEsoaalpVEAdXJyevr0qTChkuHDhy9fvpx6u3Llyv8eBlBNwxQDAKOAWaxzGFKZkFDVo4Q6Z86c4uLioqKiixcvvvLKK6NGjaLyxYsX0zpltV9//bVFixbJyckK5Uc5KXrOmjWLVijCjh8/fvDgwayd2NhYS0vLW9Vfva8xoZaXl8+YMWPgwIHiGgrFkCFDxowZw765//jxY/YOPh3o6OgYHBzM6vCEKlWfESZUEhAQMHbs2JKSEoXyWk6ePElXoahOqLSyaNGizZs304oooR48eLBdu3bNmze/f/8+LwTgNEwxADAKmMU6hyGVyaQTqoZPK1NCNVNq0qQJRcBp06ZRCDtx4kSrVq34D6NGRUW5u7uzn2eiQm9v7/bt27dt25ZiaGZmpkIZ4Joq2VZr1qyZtbX1oUOHhOdSKLOgjY0NVWjdujWl25SUFFEFkpOTM3To0JYtW3bv3r1NmzbHjh1TKA+kk/JvQQkTqtr6jCihUngNCgqimnQ51AFfX1/2E1Q8oXKihEpB1snJacKECf+tASCgYYoBgFHALNY5DKlMJp1QdY6iXm5uLt/ct2/f9OnTBfv/jRLe/v37RYXyFRYWZmRkqP1RVbXk16eonZ6ezn7uVCY65KWXXkpISBDvgEYtLy9v586d7IcsAAAA9AEJVY9iY2MjIiJEheHh4fHx8aJCY3T8+PFJkyb1799fvANMwOnTpz08PP7whz/wbwQCAADoEBIqaGn06NHTp09X+z8XAFNAIdXZ2dnR0dHX13fDhg14pAoAADqEhAoAWqKQ2q1bNwqpnTp1orSKR6oAAKArJp1Q8WllgDriIdVBqXPnzsJHqphiAMYOs1jnMKQymXRCZX+nAoDOUWw9efIkflQFwNhhFuschlQmk06o+K8EoI5Onz7t6urKUqmTk5Obm5ufn9/mzZvZM1RMMQBjh1mscxhSmZBQAUBLPJ5SMO3cufPMmTNFn0PFFAMwdpjFOochlQkJFQC0QfG0U6dOjo6OwoemIphiAMYOs1jnMKQymXRCxaeVAbTDfg9V9aGpCKYYgLHDLNY5DKlMJp1QAUAL+H9KAQCAviGhAgAAAIBhQUIFAAAAAMOChAoAAAAAhsWkEyo+rQygV5hiAMYOs1jnMKQymXRCxS8+AOgVphiAscMs1jkMqUxIqACgL5hiAMYOs1jnMKQyIaECgL5gigEYO8xincOQyoSECgD6gikGYOwwi3UOQyqTSSdUrT+tvHv37ggVCQkJ4noApk3rKQYABgKzWOcwpDKZdELVWmBgoJeX13QBOzu7JUuWiOsBAAAAQO0hoWqDEur8+fOFJf379+cJ9dmzZ0lJScnJyeXl5cI6JSUltwSePHlChQUFBcJChh147949Wr99+/bjx4+F7ZCKiooLFy6cOXOmuLiYlVBlavDBgwdxcXHZ2dnCmtQIdYlt3r9/nx9SVFSUl5fH1tX2jVE9l6L6dHwzNze3tLSU73r69ClbLysro9boT7aptikR1aum1miTV6ATUYXKykq2WavRZmh84uPjr1y5whsBAAAAg4KEqg0NCTUxMdHZ2dnHx8fLy6tr166pqam8TkxMjI2NjZeSlZXVtm3bqHDRokWsxNra2snJia1nZGTQLmqElbRo0YLWb968ydqhvW5ubh4eHoMGDbKzszty5AirPGnSpM6dO1MhNbVixQpWuaqqatq0acOHD2cBjnr+2Wef0Qq11qlTpz179rBqavsmdS6F8nQ7duxg64SudP/+/XwXb3bmzJlmZmbHjx9XSDclonrVhYWFdF2s22TkyJGjR49m67UdbTJ16lRXV9eAgABqs2/fvg8fPuSHAAAAgIFAQtWGVEKtqKjw9PRcuHAhK5w9e3bv3r0pI7LNtWvXDhkyhK336dOHZyaGWhBmPoUg6j1//pwODAsLUygTp7+/f2hoKKtz8OBBe3v7J0+eUGWKaAUFBVSYkJBgYWGRlZXF6lCvxowZM378+MrKSpZQ8/LyKCx++eWX/zmTRN+kzqWQl1DPnz9P9du0aUMJVUNTImqv+ty5cxRYqcHVq1dTsqTMqlBelxajfevWLbZCo0HDEhISwjYBAADAcJh0QtX608pSCTUjI8PMzCw/P58VUkakzZycHLYZHR1NB7J1mQk1KioqMTHxwIEDLi4uhw8fpsIbN25Qm5RBk6rZ2tqePXuWKkdGRvJjqf3169fzzbKyMnd391mzZlEHqJ9Ued68eXyvQqJvUudSKPu2dOnSxGpOTk6ihEr5r2/fvlu3bu3YsSMlVA1Niai9arJmzRpqinIqpVVWot1oU4Q9ceIE5deIiIhRo0bxOqAPWk8xADAQmMU6hyGVyaQTqta/+CCVUOPj483NzXlhaWkpZSaeqIKDgydPnszWZSZUQufq169fr169Ll26pFA+H23atGngi06fPk01t2zZwo8NCgpavHgx3zx16lTbtm2pHUslOoTCn/DjrWr7JnUuhbJv3t7evNDGxkaUUDdu3DhgwACKgyyhamhKRO1Vk9u3b1PPBw0axGtqN9ojR46kZsPDw9etWzdx4kQadlYO+qD1FAMAA4FZrHMYUpmQULURKJFQMzMzKSTduXOHFaanpws3/fz81qxZw9ZlJlT+gc7IyEh/f3+F8ls+1Kbwm0MMVebvoZOePXtu2rSJrT99+tTNzY0aLygocHV1fffdd6lwwoQJs2bN4vXV9k3qXIqa3uWPiYmxs7NLSkqiTZZQNTQlovaqKyoqXn/9dQqUnTp1+uKLL9heLUY7KyuLgjKP5jRiSKh6pfUUAwADgVmscxhSmZBQtSGVUKuqqigMUfKjFQpV48ePHzx4MKsQGxtraWnJPwRZq4RaXl4+Y8aMgQMHsvKAgICxY8eWlJQolO9Znzx5ks5FlSkLsghIYdHKyopnNerqqFGj2Hpg9TelHjx44ODgwL7DpKFvas+lqCmhOjo6BgcHs02WUBXSTYmoverFixe/8sorFLV//fXXFi1aJCcnK5SN1Ha0f/vtN0qx7Lns9evX7e3tkVD1SuspBgAGArNY5zCkMiGhakMqodJKWlqat7d3+/bt27ZtS8EoMzNTofxiUFMl22rNmjWztrY+dOiQsAXVhGpjY0OVW7duTdkrJSWFld+9ezcoKKhly5bu7u60y9fXl8IcVZ47d66Li0u3bt3oqK1bt7LKp06dateuXW5uLtvkCZV8//33VH/v3r0a+qb2XIqaEipd/qNHj9gmT6hSTYmoXvWJEydatWpFA8sqREVFUQvs96q0GO0FCxbQuqenJw3U+++/j4SqV1pPMQAwEJjFOochlcmkE2qNn1YuLCzcuXMn/9FQ+SiN8VBI9u3bN336dMH+f5syZQpPdVqgiJaens6+vK+ojoxlZWUU2oqKil6sq4mcvonOVRc6bIqr7Wjn5+dfvXpV7RNc0K0apxgAGDjMYp3DkMpk0glVg3Pnzr333nseHh5qv81TW7GxsREREaLC8PDw+Ph4UaHWRA815auHvtWzxndFAAAApgYJ9QWFhYWbN2/u16+fo6Ojk5OTEf1DZ968eXFxceJSAAAAACOEhPof7KFp586d3d3dHRwcaMWI4ikAAABAY2LqCZU/NKVg6uzs7KCEeAoAAADQgEw6oa5fv97NzY2lUgDQOfxLD8DYYRbrHIZUJpNOqKtWrSosLNy4cWOvXr26dOnC/1qldZ18QQrAxOFHVQCMHWaxzmFIZTL1hMrXz507N2XKFGdnZxcXF4RUAJ3AjRjA2GEW6xyGVCYk1BfwR6qOjo6dOnVCSAWoC9UpBgDGBbNY5zCkMiGhqsceqbq7uyOkAmhNwxQDAKOAWaxzGFKZTDqh1vhpZa3/n1IAoJAxxQDAwGEW6xyGVCaTTqgAAAAAYICQUAEAAADAsCChAgAAAIBhQUIFAAAAAMNi0gkVn1YG0CtMMQBjh1mscxhSmUw6oeIXHwD0ClMMwNhhFuschlQmJFQA0BdMMQBjh1mscxhSmZBQAUBfMMUAjB1msc5hSGVCQtWvZ8+eiYugvmDwG1w9TDEA0CvMYp3DkMpk0glVw6eVd+/eHaEUHR29ffv2hw8fimtI279//5tvvmlvb29hYREcHCzeDfqEwTcoGqYYABgFzGKdw5DKZNIJVYPAwEAfH5+5c+fOmjXLz8/P1tY2LS1NXEmd9evXOzg47Nmz5969e5WVleLdoE8YfAAAgMYBCVU9Sqjz589n61VVVd7e3h9++CGtU/R58uSJsCbtvXXrVkVFBa0XFxe3aNEiMTHxglJZWRmvxg588OBBXFxcdnb2f49XKGgzPj7+ypUrPFQVFBTcUlFeXs7bER4upOFAhfJd76SkpOTkZF6iUDZIdW7fvv348WNeyKh2TMNVqHZMODJCVPPp06dsnYaI6ggHSqikpER4IcL2Va9Fw+Ar1F2LQuLapbonNbaqF65K7YlEhOelC6fKfJfqxSqkX4vCwsKzZ8/Sxebm5gorq70oUefpkNLSUoWyEdH7Bnfu3GG7AAAA6gESqnqihOrj47NkyRJap5UdO3YIa9Lf5WZmZvRXPq2fOnXK2tq6S5cuPXr08PX1dXJyOnfuHKtGB06aNKlz586DBg2iOitWrGDlU6dOdXV1DQgIoF19+/ZlsWDRokVeSlSTGmHrGRkZrB1RB4Q0HEjRzdnZmQ6nkq5du6amprJDqITVpHhH6zdv3mTlajsmdRVsl4aREaKae/bsYeszZ86kOsePH3+xyn/ExMTY2Niwq7Cystq2bRsrV3stGgZf7bUoJK5dqntSY6t64arUnkiEn5eyYLdu3aKioli52otl9dW+FlTZz8/P39+fRowXSl2UqPPU/v79+2mFCmmd/stn5SkpKRYWFhRneU0AAAC9QkJVjxIqpRwKqcHBwQMHDhw2bFh+fr5C5W90xYs5jP7Wp/X33nuP7froo4/c3NyeP3/ODqS/8gsKCmg9ISGB/r7PysqidR7gKisrx4wZExISwjaZ/v37i06n2gG1RAdWVFR4enouXLiQbc6ePbt3794sf/DsQv0cMmRIWFgYq6O2Y1JXwXZpGBkhfsbz58/b29u3adNGKqGuXbuWusTW+/TpwxKq1LVoGHy116KQuPYauycaW9ULV6X2RCKszt27d7t377506VJWKHWxrL7a14I/tP7uu+86dOjA1qUuSiqhlpWVtWvXjl/4nDlzxo0bx6sBAADom0knVA2fVqaE+uqrr0ZHR0dFRU2bNs3FxeXUqVMK5d/olB4SExMzMjLY+6TCHEZBgdavXbvGGnn48CFtsodedGBkZCRvn/LW+vXrFcoHtCdOnKAoFhERMWrUKDovr6NQCUMKdR1QS3QgVaaesJBNKMrQZk5OjkLZIF0jNXjgwAG6zMOHD7M6ajsmdRVsl4aREWJpicJi3759t27d2rFjR6mESuPPB4QnVKlr0TD4aq9FIXHtNXZPNaHW+IqoPZFqnc8//9zDw2PGjBm8UOpiWX2p14JO9OOPP44YMWLevHmsROqieOcZJycnllDJBx98MHbsWFp58uSJra1tbGwsK68VDVMMAIwCZrHOYUhlMumEquEXH4Tv8pOPP/7Yy8tLofwb3dvbm/b269evbdu2FDiEOezChQu0XlJSwg+0srI6evQoO3DLli28PCgoaPHixbQycuTIXr16hYeHr1u3buLEiZR+eB2FShhSqOuAcC8nOjA+Pt7c3JxvlpaWUj/Zm+A+SqxB6smlS5dYHbUdk7oKtkvDyAixtLRx48YBAwZQdlSNgFxwcPDkyZPZOk+oUteiYfDVXotC4tpr7J5qQq3xFVF7ItU6lpaWFCvpjOzJqEL6Yll9qdciJCRk2LBhXbp04e/sS10U7zxjY2PDEyql4ebNm9+7d++rr75yc3Pj7/jXioYpBgBGAbNY5zCkMiGhqidKqF988UWrVq0Uyr/ReTqJjIz09fUV5rBHjx7R+pUrV1iF3NxcvkkHhoaG/qc5haJnz56bNm2iENC0aVP+7RmqICehijog3MuJDszMzKSe3Llzh22mp6fzTZZdWDk16O/vr1CmE7UdU3sVbF21YxoSakxMjJ2dXVJSEm2qRkDOz89vzZo1bJ0nVKlrkRp8qWtRSFx7jd1TTag1viJqTyRCddjPY02aNIk9vFRIXyyrL/VaMJcvX7awsKBXQSF9UcLOKwTv8jPDhw9fvnw59XblypW8sFY0TDEAMAqYxTqHIZUJCVU9Sqhz5swpLi4uKiq6ePHiK6+8MmrUKIXgb/Ty8vIZM2YMHjxYlMPowAkTJlRUVFRVVc2cOZPqsy+P0wrFAvYFbQoBVlZWlDN+++03OpY9Ubt+/bq9vb38hMo7INzLiQ6kzlDCmzVrFq1Q38aPH88P5OGJNThw4EBal+qY2qvg7WgeGY5qOjo68h8rVY2ATGxsrKWlJT+cJ1QN16J28KWuRSFx7TV2TyqhanhF1J5IhNehqO3s7Lx9+3aFxotV+1qUlpbSf7SswtGjRymhsq/wS10U7zwjSqgHDx5s165d8+bN79+/zwtrRcMUAwCjgFmscxhSmZBQ1aOsY6bUpEkT+qt92rRp7C9p+hvdxsbG1ta2devWlBVSU1NFOSw7O5u929u+fXsvL6/Lly+zch/lr6u6uLh069aNWti6dSsrX7BggbW1taenJ5W///77chKqqAPCvZzqgWlpad7e3tQr6huFnszMTFYuajAlJYWVq+2Y1FWotqM6MsKa1A3KYWxTNQIqlNmoqZJttWbNmlF/Dh06pJC+FqnBV3stCpU+s2uvsXuqCbXGV0TtiVTr8OescXFxVJN95V/qYtW+Fjdu3Hj55ZfpH1QeHh5Un//6gdRFaU6olImdnJwo9PMSJi8vb+fOnezprGYaphgAGAXMYp3DkMpk0glVf59Wpr/C+cNFhkWBsrIyChxFRUXCXfn5+VevXlX93VB9uHv3rvBnMjVT7ZiGq9Ctffv2TZ8+XVQ4ZcoUYX6SuhbVwVeouxbjonqxUq9FeXn5tWvXsrKyhD+eqp3i4uKXXnopISFBvEOhOH36NIXgOXPm8J/0Ukt/UwwA6gdmsc5hSGUy6YRan0QPq4xUvV1FbGxsRESEqDA8PDw+Pl5UaLL0/VocP3580qRJoof6Qr/++quTk1OHDh0GDhy4efNmOY9UAQAAZEJCrSfz5s2Li4sTlxqbxnEVjYO+X4vRo0dPnz5d7f9cgKOQ6uLi4ujoSHHZ1dW1xkeqAAAAMiGhAoD2WEh1UOrevXuPHj3wSBUAAOrOpBMq+2sVAHTI0dGR/uzWrdvJkyfFUw4AAEAek06o+LQyQB2dPn26e/fuTk5OLJ7SipeX18qVK9kzVEwxAGOHWaxzGFKZTDqh4hcfAOqCxdOOHTs6OjpSNh09evSZM2eEFTDFAIwdZrHOYUhlQkIFAG1QPGVfkxI+NBXBFAMwdpjFOochlQkJFQBqjf0e6u9//3vRQ1MRTDEAY4dZrHMYUpmQUAGgdvD/lAIwHZjFOochlcmkEyo+rQygV5hiAMYOs1jnMKQymXRCBQAAAAADhIQKAAAAAIYFCRUAAAAADAsSKgAAAAAYFpNOqPi0MoBeYYoBGDvMYp3DkMpk0gkVv/gAoFeYYgDGDrNY5zCkMiGhAoC+YIoBGDvMYp3DkMqEhArqPXv2TFwEUEuYYgDGDrNY5zCkMiGh1k5FRUWEOlFRUeKqRmj//v1vvvmmvb29hYVFcHCweDdALWkxxQDAoGAW6xyGVCaTTqhafFr5+fPn06t17tzZ3d2drb/33nviqsZm/fr1Dg4Oe/bsuXfvXmVlpXg3QO1pMcUAwKBgFuschlQmk06odfS73/2Osqmw5NmzZ0lJScnJyeXl5byQAt+tW7du3779+PFjQd1/y87Ojo+Pv3LlijARUv0nT548ePAgLi6OKojK+SapqqqilisqKoSFXElJyS0B4bGq/SwuLm7RokViYuIFpbKyMl5ZId1PtddVWFgoPK/w0wLUVWr8zJkzdDpeKLqu3Nzc0tJS1XJFTdcLAAAAjQYSqvZECZXinbOzs4+Pj5eXV9euXVNTU1k5lTg5OVEhRUBav3nzJiufOnWqq6trQEBA586d+/bt+/DhQ15/0qRJVDho0CBra+sVK1bw8h07drB1hrKgmZkZhTZhIRcTE2NjY+OlZGVltW3bNlautp+nTp2ic3Xp0qVHjx6+vr7U4XPnzrH6Gvqp9rrmzp3bpk0bdt6mTZtSy6w8IyPDzc3Nw8ODrsvOzu7IkSO8HeF1UZf279+vWq6o6XoBAACg0UBC1Z4woVZUVHh6ei5cuJBtzp49u3fv3lVVVQpl0tqzZ49C+QmBIUOGhIWFsTo8aVVWVo4ZMyYkJIRtUn1KaQUFBbSekJBgYWGRlZXFymuV2NauXUunY+t9+vRhCVWqn8ePH6em+GcVPvroI0qT1GGFxn6qva4///nP1Cxbt7W1ZQmVTuHv7x8aGsrKDx48aG9vzx6RIqECAACACBKq9oQJNSMjg8JTfn4+26RMSZs5OTkKZdKKiopKTEw8cOCAi4vL4cOHWR0KbSdOnKAcGRERMWrUqMDAQFZO9SMjI9m6Qhku169fz8qXLl1K7dC52LvwmhNbdHQ0b5MnVKl+UhSmlWvXrrHyhw8f0iZ7vKqhn2qva9q0afPnz2frPKHeuHGDGqSzJFWjXWfPnmXtsOtinJyceEKt1fUCAABAo2HSCbWOn1YWJtT4+Hhzc3O+q7S0lLIUe6PcR4mCXb9+/Xr16nXp0iVWZ+TIkbQZHh6+bt26iRMn9u/fn5VT5S1btvCmgoKCFi9ezMq9vb1ZO23btqVcqDmxBQcHT548ma3zhCrVzwsXLtBKSUkJ32VlZXX06FGFxn5KXRclS7bOEypl06ZNmwa+6PTp06wddl2MjY0NT6i1ul4wQHWcYgDQ4DCLdQ5DKpNJJ9Q6/uKDMKFmZmZSeLpz5w7bTE9P55s+1e+Gk8jISH9/f4Xy4SUlNv4do9DQUGHy4++Gk549e27atImV83e9qR1fX1/Nic3Pz2/NmjVsnSdUqX4+evSIVq5cucLKc3Nz2abmfqpel0L5Nv2+ffvYOk+o2dnZ1ODt27dZuZDwuhQS7/LLuV4wQHWcYgDQ4DCLdQ5DKhMSqvaECbWqqopS4KxZs2iloqJi/PjxgwcPZrt4kisvL58xY8bAgQNp/bfffqOwxZ47Xr9+3d7eXpj8OnbsyMIcZTUrKyuedFliY+1Q+xoSW2xsrKWlJd/FE6qGfgYGBk6YMIEKadfMmTPpdJWVlZr7Kbqu0tJSGtI2bdpQ3mV1eEIlAQEBY8eOZY9p6RQnT55k38qvMaHKuV4wTHWcYgDQ4DCLdQ5DKhMSqiYUiXbu3JmXlyfeoST6Ln9aWpq3t3f79u3btm1LKTAzM5OVU9KysbGhrNa6dWuKWSkpKax8wYIF1tbWnp6e3bp1e//994XJb+7cuS4uLlROB27dulVtO6mpqVKJ7eDBg02VbKs1a9aMznXo0CGFdD+zs7PZ++m0y8vL6/Lly6xcQz9F17V06dJXX32VvXfPCBPq3bt3g4KCWrZs6e7uTof4+vqy37rSkFBlXi8YrBqnGAAYOMxincOQyoSEqt65c+coJlIsE+YtOSiH5ebmiksl5OfnX716VfQDnyyxlZWVUZQsKioS7pJp3759oh9qJVOmTGHJj5HqJ8Vx/hkATm0/tVNcXJyens5+qQAaPQ1TDACMAmaxzmFIZTLphKr6aeXCwsLNmzcPHjy4Q4cOTk5Ox44dE1WoB6JnilqIjY2NiIgQFYaHh8fHx4sKAfRKdYoBgHHBLNY5DKlMJp1QhdhD027dulE87dKlS0PFUzJv3ry4uDhxKQAAAIDJMPWEyh+a9urVa8CAAQ5KDRhPAQAAAMCkE+rJkyfd3Nwokrq6urJsCgA6JJ5yAAAA8ph0QlUon6GGh4e7u7t36NCB/Z3q4uJCm7X9ghQAAAAA6IpJJ1Thp5Xj4+PfeustllM7deqEkApQd/hCAICxwyzWOQypTCadUFV/8YE/UnV0dHRxcUFIBagL1SkGAMYFs1jnMKQyIaGqFx8fHxQUhCepAHWhYYoBgFHALNY5DKlMSKiaaP5/SgGAZjVOMQAwcJjFOochlQkJFQD0BVMMwNhhFuschlQmk06o+LQygF5higEYO8xincOQymTSCRUAAAAADBASKgAAAAAYFiRUAAAAADAsSKgAAAAAYFhMOqHi08oAeoUpBmDsMIt1DkMqk0knVPziA4BeYYoBGDvMYp3DkMqEhAoA+oIpBmDsMIt1DkMqExKqert3745QkZCQIK4HANI0TDEAMAqYxTqHIZUJCVW9wMBALy+v6QJ2dnZLliwR1wMAaRqmGAAYBcxincOQymTSCVXDp5Upoc6fP19Y0r9/f55Qnz17lpSUlJycXF5eLqxTUlJyS+DJkydUWFBQICxk2IH37t2j9du3bz9+/FjYDqmoqLhw4cKZM2eKi4tZCVWmBh88eBAXF5ednS2sSY1Ql9jm/fv3+SFFRUV5eXlsXW3fGNVzKapPxzdzc3NLS0v5rqdPn7L1srIyao3+ZJtqmxIpLCw8e/ZsfHw8tckL6Yqo5MqVK5WVlbxQeCLqPw0U36W2vtqWFRKVoR5omGIAYBQwi3UOQyqTSSdUDTQk1MTERGdnZx8fHy8vr65du6ampvI6MTExNjY2XkpWVlbbtm2jwkWLFrESa2trJycntp6RkUG7qBFW0qJFC1q/efMma4f2urm5eXh4DBo0yM7O7siRI6zypEmTOnfuTIXU1IoVK1jlqqqqadOmDR8+nKVe6vlnn31GK9Rap06d9uzZw6qp7ZvUuRTK0+3YsYOtE7rS/fv381282ZkzZ5qZmR0/flwh3ZQIjZ6fn5+/vz91g13F1KlTXV1dAwIC6Or69u378OFDVpOf6M6dO926dYuKimLlUvVVW9ZQGQAAAAwWEqp6Ugm1oqLC09Nz4cKFrHD27Nm9e/emjMg2165dO2TIELbep08fngIZakGY+RSCBPb8+XM6MCwsTKFMnJSxQkNDWZ2DBw/a29s/efKEKlNMLCgooMKEhAQLC4usrCxWh3o1ZsyY8ePHV1ZWsoSal5dHYfHLL7/8z5kk+iZ1LoW8hHr+/Hmq36ZNG0qoGpoSod6yle+++65Dhw60cuvWLVZC/acLCQkJYZvsRHfv3u3evfvSpUtZoYb6qi1rqAwAAAAGCwlVPamEmpGRYWZmlp+fzwopI9JmTk4O24yOjqYD2brMhBoVFZWYmHjgwAEXF5fDhw9T4Y0bN6hNyqBJ1Wxtbc+ePUuVIyMj+bHU/vr16/lmWVmZu7v7rFmzqAPUT6o8b948vlch0TepcymUfaNQmFjNyclJlFAp8PXt23fr1q0dO3akhKqhKVXU4I8//jhixAjWSUq3J06coAwdERExatQo3k860eeff+7h4TFjxgzh4VL1FSota64MAAAAhgkJVT2phBofH29ubs4LS0tLKZadO3eObQYHB0+ePJmty0yohM7Vr1+/Xr16Xbp0SaF8Ptq0adPAF50+fZpqbtmyhR8bFBS0ePFivnnq1Km2bdtSO5ZKdAhFXuHHW9X2TepcCmXfvL29eaGNjY0ooW7cuHHAgAGU/1hC1dCUqpCQkGHDhnXp0oU9ix05ciRdfnh4+Lp16yZOnEgDxarRiehaKG7SKdjDY0aqvkKlZc2VAQAAwDCZdELV8GnlQImEmpmZSZH0zp07rDA9PV246efnt2bNGrYuM6HyIBUZGenv769Qfq2H2hR+K4ihyvw9dNKzZ89Nmzax9adPn7q5uVHjFONcXV3fffddKpwwYcKsWbN4fbV9kzqXoqZ3+WNiYuzs7JKSkmiTJVQNTUm5fPmyhYUFNULRlodpukZhQqVgTSuTJk0aO3YsK8zKypKqz7GWCwsL5VQG/dEwxQDAKGAW6xyGVCaTTqgafvFBKqFWVVVRvKPkRysVFRXjx48fPHgwqxAbG2tpack/9VirhFpeXj5jxoyBAwey8oCAAApkJSUlCuWb1CdPnqRzUWXKgiwCUli0srLiyZi6OmrUKLYeWP1NqQcPHjg4OLDvMGnom9pzKWpKqI6Ojiw7KqoTqkK6KaHS0lL+Nf+jR49Sjrx69SpFW/b8+Pr16/b29sKEysbn0aNHzs7O27dvp/XffvtNbX3Vlim4S1WG+qFhigGAUcAs1jkMqUxIqOpJJVRaSUtL8/b2bt++fdu2bSnqZWZmKpRfDGqqZFutWbNm1tbWhw4dEragmlBtbGyocuvWrSnppqSksPK7d+8GBQW1bNnS3d2ddvn6+lKEpcpz5851cXHp1q0bHbV161ZW+dSpU+3ateO/r8QTKvn++++p/t69ezX0Te25FDUlVLp8So1skydUqaaEbty48fLLL7/yyiseHh40gCwoL1iwgPrj6elJl/b++++rJlQSFxdHbbKfO1BbX23LUpWhLvLy8nbu3FlYWCjeoULDFAMAo4BZrHMYUpmQULVEaUz4o5v79u2bPn26YP+/TZkyhac6LRQXF6enp/PPX7LIWFZWRhG5qKjoxbqayOmb6Fx1UWNTFFuvXbuWlZUlzK/5+flXr15VfeYqRW19tS0rJCpDXZw+fZpCP/2TiX8IW626TDEAMASYxTqHIZUJCVU3YmNjIyIiRIXh4eHx8fGiQq2JHmrKVw99AxN0/PjxTp06dejQ4bXXXtu8ebPaR6o6nGIA0CAwi3UOQyqTSSdU4/q08rx58+Li4sSlAA3np59+6tixY48ePYYNG+bm5qb6SNW4phgAqMIs1jkMqUwmnVABoI5YSHVwcHB2dqac2rdvXw2PVAEAAGQy6YTqAAC61qNHD/rTzc3t5MmT4ikHAAAgj0knVACoI/aVqZ49e/KE6urqOmfOnLy8PHFVAAAA2ZBQAUBLLJ66u7uzbDpo0KBvvvlGXAkAAKD2TDqh4tPKAFqjeOrq6uro6KjhoSmmGICxwyzWOQypTCadUPGLDwDaoXjq4eHxP//zP5ofmmKKARg7zGKdw5DKhIQKALWD/6cUgOnALNY5DKlMSKgAoC+YYgDGDrNY5zCkMiGhAoC+YIoBGDvMYp3DkMpk0gkVn1YG0CtMMQBjh1mscxhSmUw6oQIAAACAAUJCBQAAAADDgoQKAAAAAIYFCRUAAAAADItJJ1R8WhlArzDFAIwdZrHOYUhlMumEil98ANArTDEAY4dZrHMYUpmQUAFAXzRMsd27d0eoSEhIENcDgAalYRaDdjCkMiGhAoC+aJhigYGBXl5e0wXs7OyWLFkirgcADUrDLAbtYEhlQkIFAH3RMMUooc6fP19Y0r9/f5ZQ79279+TJkwcPHsTFxWVnZwvrkGfPniUlJSUnJ5eXl/NCOuTWrVu3b99+/PixoK6ioqLiwoULZ86cKS4u5oVS7VP506dP2XpZWRk1SH/SekFBwS0VdHbWDj9cSklJifBA4SFqr4VUVlZeu3YtPj6e6iukO1BYWPjw4UPhgXfu3CktLVVUD4gQLxd2IDc3l5UzdexPjQMidSDbq/bsUq8svXDUnytXrlDfeKHUK6uoZeMgpGEWg3YwpDKZdELFp5UB9ErDFNOQUH18fCZNmtS5c+dBgwZZW1uvWLGC10lMTHR2dqYKXl5eXbt2TU1NZeVU4uTkRIUtWrSg9Zs3b1JhRkaGm5ubh4cHtWNnZ3fkyBFeWW37VL5nzx62PnPmTDMzs+PHj9P6okWLvJSoMjsLocap/o4dO1h9DWJiYmxsbNhRVlZW27ZtY+VS13L16lVfX18XF5ehQ4c6ODgcOHBAqgN0djqwqqqKHZiSkmJhYUGpSyEYEMbS0nL//v2sXNhnOpyVK3TRnxoHROpAhfTZ1b6yU6dOdXV1DQgIoBexb9++PKZLvbK1ahxENMxi0A6GVCaTTqgA0FA0J1SKEQUFBbSekJBAqSsrK0uhfCDq6em5cOFCVn/27Nm9e/dm+YyHy+fPnw8ZMiQsLIzK/f39Q0NDWeWDBw/a29uzJ3xS7fNGzp8/T5XbtGnDEipHPRQmsBoDGbN27VrqElvv06cPS6hS10L8/PymT5/OHg1StUePHv2nIZUOlJWVtWvXjndyzpw548aNY+tSSVSqXCf9kTkgCpUDpc6uUPfK0vot5aNchfLh7pgxY0JCQtim2le2to0DgIFAQgWABqA5oUZGRvJySnXr169XKJ+JmpmZ5efns3IKH7SZk5PDDomKikpMTDxw4ICLi8vhw4dv3LhBeymmJFWztbU9e/ashvZZXqHQ07dv361bt3bs2LHGhLp06VI6KXWMfR5ArejoaLpYts4TqtS1ZGZm0srdu3erj36BqAPkgw8+GDt2LK1Q+KYLjI2NZeVSSZT3mXFycmLlOumPzAFRqBwodXaFuleWCilfnjhxgqJ/RETEqFGj+PCqfWVr2zgAGAgkVABoAJoT6pYtW3h5UFDQ4sWLaSU+Pt7c3JyXl5aWUtQ4d+4cO4RQm/369evVq9elS5comzZt2jTwRadPn2aV1bbPEurGjRsHDBhAGUhOQvX29mYnbdu2LaUcQd3/Cg4Onjx5MlvnCVXqWqjbwnIR1YRKeat58+b37t376quv3Nzc+Dv+GhIq6zNjY2PDynXSH5kDolA5UOrsCnWvLBWOHDmS1sPDw9etWzdx4kRqjR2o9pWtbeMAYCCQUAGgAQRqTKj83XnSs2fPTZs20Qp7nnfnzh1Wnp6ezjdZuGTlkZGR/v7+2dnZtPf27dvVzfyXVPtUHhMTY2dnl5SURJtyEirfpJP6+vryXUJ+fn5r1qxh6zyhSl0L67bq98MY1YRKhg8fvnz5crrklStX8kJh3xQy3uXXSX9kDohC5UCpsyvUvbIUyunfHvy7TfRSChOq6itbq8b5sQDQ4Ew6oeLTygB6pWGKaU6olA5ZuKT8ZGVlxfJEVVUVJbxZs2bRSkVFxfjx4wcPHsyO5VGjvLx8xowZAwcOpPWAgICxY8eWlJSwY0+ePElHaWifyh0dHYODg1mb8hMqOynvjFBsbKylpSX/3CRPqBquZciQIWPGjGG/KkA5TPgOu9qEevDgwXbt2jVv3vz+/fu8UCqJSpXrpD9yBoQRHajh7Kqv7G+//UYRkz3vvH79ur29vTChqr6ytWqclYOQhlkM2sGQymTSCRW/+ACgVxqmmOaEOnfuXBcXl27dutnY2GzdupXXSUtL8/b2bt++fdu2bSl2ZGZmsnI6hGra2tq2bt2a8kdKSgoVUpYKCgpq2bKlu7s7lfv6+rJfGpJqn8qpZf5NIDkJVXhS/g1xjrJjUyXbas2aNbO2tj506JBC+lpycnKGDh1K3e7evXubNm2OHTvGG1SbUCl1OTk5TZgwQVgolUSlyhW66E+NA8KpXojU2dW+sgsWLKBh9PT0pFfw/fffFyZUta9srRoHEQ2zGLSDIZUJCRUA9EW7KcZSVFlZGQWLoqIi8W5l9MzNzRWXSiguLk5PT2ff72ZqbF9X9u3bN336dFHhlClTeChUSF9LYWFhRkaG5p8XZegCX3rpJV3977jq3p+6kDq7qvz8/KtXr7KH4pzmV1Z+46YgLy9v586d9LKKd6jQbhaDBhhSmZBQAUBftJtioud8Oqfv9rnY2NiIiAhRYXh4eHx8vKhQa8ePH580aRJ/iGji6u2VbRxOnz7t6ek5YsSIXbt2ifcJaDeLQQMMqUxIqACgL9pNsXnz5sXFxYlLdUff7den0aNHT58+HT81zzSmV7Z+UEh1dXV1dHR0cXGZOXOm2m8WajeLQQMMqUwmnVDxaWUAvcIUAzBwFFK9vLx69+7toOTv7y96pIpZrHMYUplMOqECAACYOBZSX3vtNRZSiYZHqgD1BgkVAPSF/4UHAEbE2dmZ/uzatevJkyfFsxqgviChAgAAmK5ff/3VxcWFZdM+ffr4+PgMGjRo8+bNcr7pD6A/SKgAAAAmisVTZ2fngQMHdu3ade7cuex/CQvQ4Ew6oeLTygB6hSkGYMgonlI27dChg4aHppjFOochlcmkEyp+8QFArzDFAAwW+z3UGh+aYhbrHIZUJiRUANAXTDEAw4T/p1QDwpDKhIQKAPqCKQZg7DCLdQ5DKhMSKgDoC6YYgLHDLNY5DKlMJp1Q8WllAL3CFAMwdpjFOochlcmkEyoAAAAAGCAkVAAAAAAwLEioAAAAAGBYkFABAAAAwLCYdELFp5UB9ApTDMDYYRbrHIZUJu0Tampq6lwjN3jw4GXLln0GAPoxevRocVFDy8nJEd/LAEAafhpJ5zCkMmmfUCnhmQEAGJW1a9eK72UAIA1xSucwpDLVNaEGBQUtM04zZ86k/gcHB68FAP0YPXq0uKjhvPPOO0ioALWFOKVzGFKZ6ppQKeoVGKcffviB+h8XFye+MADQEYO6EX/22WdIqAC1ZVCzuHHAkMpkKAm1V69enTp12rFjB61fvXo1OTk5KytLXEmnaptQnz9/vqPa3bt3qaSiouK5krgqNLS8vDz+YpWVlYl3Q30xqC8EIKECaMGgZnHjgCGVyVASqp2dHbW2adMmWh82bBitz5gxQ1xJp2qbUIuLi6m+tbW1u7v7qVOnqKRZs2b//lybmZmFhUWXLl3WrFkjPgYayLlz5+hloheLXp379++Ld4NJQkIFADAi9ZpQKSucP3/+8OHDBw4cuHjxonAXT6hXr159/fXXaX3ixImXL19OT08XVtMh7RLqq6++yktYQqW/9iIjI1kYysjIEBzx7yd5t2/fFpbcuXOnpKREWMLxJ7JcVVUVldOfdBSdXViZVaBDhIUK5Rlv3Ljx5MkTXsKrPXjwoLS0VLWcYx0QlnCivrGOMWq7p3jx2lUvjeGVK5QU1dfFVVZWsgrPq3tLp+PlvJATXQL7DwkJFRgkVAAAI1KvCbVXr17soSNDaY/CDdvFE6qHh4ewzssvv/xiGzqjq4RKAejp06eurq60Tvmb7dq3b1/Hjh3ZJQwbNoxKdu7cya6xSZMm48aNU410LVq04FfNUCP/+Mc/2rVrxzbfeOMNlvnojLzOSy+9NHXqVBbUaJ0V0inGjh1bXl7Oarq4uAwfPpxWmjdv/vXXX/MW3N3dhR2galSo2jFia2vLz0iOHz/OytV2T/XaVS9t8ODB9OeJEydoL0VqM+XACq+L+d3vfqd4sbf0erFyOZeAhApCSKgAAEakXhPqX/7yl/Xr1+/fv3/btm2dO3emwxctWsR28YT66aefdunShdYpzi5YsCA0NPTFNnSGfZefvV8vh1RCpQxNyY9WpkyZwsovX75sYWFBefGrr746evQoXXJqaqq5ufkrr7xy4cKFlStXUuW//vWvvB0mLS3t0qVLLMT/9NNPtH769Gk6BaW9H3/88cMPP6Tyt956S1Gd2CgTp6SkBAQE0Hp6ejqVr1u3jtqndt59910qpEHmmS8iImLXrl02NjbW1tZ5eXly4p1Qq1atqP87duzw9/c3q06odHbV7qleu0LdpZ08eZLWx48fT3vpFaf1rVu3sl45OjrSiT7++GMzJFTQKSRUAAAjUq8J9datW19++WVISEhwcLCPjw8dPmLECLarnj+H+uc//5knJJmkEuoHH3xA+ax9+/aU4RISEqh89erVZi9mUFbi5eVFZxw9ejSte3h48L1C1D7tvX79ukL5dT9a/+ijjxTK968pB1taWj5//pyFM8qar732WosWLSiH0d6qqirKvkOGDOnRo4eDgwNVWLhwIatpb2/PGqdgR5s//PADK6fA+uabb1IhvSgKlXjHUct0pW3btqV16r9ZdUJV2z2p/K148dJIv379qD71pHfv3i1btqTzqk2iiuqESr194403qDIrl3MJSKgNzqC+EICECqAFg5rFjQOGVKb6S6jXrl1zcnKiQyjrUDxlkZRSC9tbnwmVxdP333+/Vr/4IJVQWQAKDw+n9fnz5yvUJVQW5gYNGvRhtaVLl/K9QhoSqqUST6g0YitWrBg4cCBFw/j4+O3bt1Ph0KFDv//+e/bSUGdYTQqsrHFRQmUtsDPu379fKqFmZGRQOb1kCo0JlXVPfkLduXMnbbLX4k9/+pNC4lkpL6feUuOzZ89m5XIuAQm1wdVqiukbEiqAFgxqFjcOGFKZ6i+hbty40UwZT3Nzc2lz7NixZhIJ9e2336b1adOmCQ/XFR5PFbX8r0QqoVIj9Dcf+9DCunXrqPzSpUv8ne5jx47xd/k9PDzoX04pKSlUTmHrv00LCGNccnKy6G304cOHK6oTG6Wx8+fPT58+ndZjYmLYe+XvvvvuxYsX+/fvbyZIqGbKd/l3794tepdf2MLmzZvVJlTqCesSxett27b169fPTPnY+O7du2q7p3rtvClRQn327Jm9vT3rHvsHpeaEqvZdfs2XgITa4Go1xfQNCRVACwY1ixsHDKlM9ZdQ2TMzCmrh4eEhISG0YiaRUNlzsjZt2owbN46i1Qut1I0wnipq+V+JVEIltOLk5PSXv/ylvLyc7dq7d6+joyPby74ttGvXLh7IWrVqFR0dzdsREsU4CoWU6dlRQ4cOZf9LcZ47ScuWLUeMGPHw4cM7d+64ublRSevWrdmTTp5QKbe99dZbtGJpaUnBUdQCdWbMmDGPHz9Wm1CpA7ymEHuMqrZ7qtfOiC6NhIWFmQk+S6o2iUqVy7kEJNQGV6sppm9IqABaMKhZ3DhgSGWqv4RKQWHkyJEsUvj4+Gh4hpqSkuLv78++fhQQEPBCK3UgiqeKWv5XwhLqSy+9RH0+e/aseLc6ubm5ol+bYiWi30jSrKqqig6h+CXeoYKavXXrFv+FJsWL2e7BgwdPnz79b215WEIVltApzARf55fqnuq1q6LUbqZ8CC3eUWcXL16kl4n9uAESagPSx4urNSRUAC0Y1CxuHDCkMtVfQmXS0tIuXLggLtU/1XiqqOWnlcvLy1dWu3nzpni3QRImVO1Q1Fu0aJGwpKioiEoyMzOFhVrw9fVt1qxZ586dVdNt3eXk5PAXS4tcDrpSqymmb0ioAFowqFncOGBIZarvhNog1MZTU0Cp+siRI/J/Uas+7d2795tvvqFXR7wDQD+QUAEAjEjjT6gmG08BQAgJFQDAiNQ1oc6cOfMHA8Z+lh/xFACQUAEAjEhdE6rhQzwFAAUSKgCAUdE+oS5btoxu98HBwXEGTPNHMPFpZQC9MqgphoQKoAWDmsWNA4ZUJu0TaiO43eMXHwD0yqCmWCO4ZQHUP4OaxY0DhlQmJFQA0BeDmmKN4JYFUP8MahY3DhhSmZBQAUBfDGqKNYJbFkD9M6hZ3DhgSGVCQgUAfTGoKdYIblkA9c+gZnHjgCGVyaQTqnafVq6srDxw4MDChQunTJkyf/787777Tvg/GgUATrsppieN4JYFUP8MahY3DhhSmUw6oWqnuLjY1dV1wYIFq1ev/vjjj2l9xIgRVVVV4noAYEhM9pYFAGCMkFC1IcyjWVlZNA5Xrlxhm9nZ2fHx8bQpfLB67949/n+HLykpuX37Nt+ltn5hYeHZs2epPDc3lxcKUYO3XlRaWsp2PXv2LCkpKTk5uby8XHgInVdY/8mTJ1RYUFAgLGTYgewU1NXHjx8L26moqLhw4cKZM2coqfNCqkwNPnjwIC4ujq5IWJkaoS6xzfv37/OjioqK8vLy2LravjEaTsc3aZT45QNIMeVbFgCA0UFCrSvKgs2aNaNcRetTp051dXUNCAjo3Llz3759Hz58yOr4+Pjs2bOHVu7cudOtW7eoqChWLlXf2dnZz8/P39/fyspqxYoVrFCIGnRycvKqZmlpuX//fipPTEykY2kvFXbt2jU1NZUfEhMTY2Njw+pTs9u2baPCRYsWsRJra2veYEZGhvAULVq0oPWbN29SIe1yc3Pz8PAYNGiQnZ3dkSNHWONUYdKkSXQVVE5N8T5TlJ82bdrw4cNZ6g0MDKT/bGiFWuvUqRMbE4VE3xQaT7djxw62TuhK2eUDaIBbFgCAEUFC1dKPP/44a9ascePGUYT6+uuvWSHLqQrlZ1XHjBkTEhLCNllCvXv3bvfu3ZcuXcoKNdSvqKhgK999912HDh3YupDaiEZHeXp6Lly4kBXOnj27d+/e/HEvvVJDhgxh63369OEpkOnfv7+wQYUgVT9//pwODAsLo6YoNIeGhrIKBw8etLe3Z88yqTL1oaCggNYTEhIsLCyysrJYNeoVXdr48ePpGllCzcvLo0H78ssv/3Mmib5pPp3q5fNNALVM/JYFAGBcTDqh1uXTyqdOnYqOjl6wYEGXLl3++Mc/svfoKVSdOHGCxiQiImLUqFEUyFhlSlSff/65h4fHjBkzhI1I1Vcon4ZSCB4xYsS8efMER/yH2oiWkZFBr0h+fj4rZB8/yMnJYZvUW96+zIQaFRVF3Thw4ICLi8vhw4dv3LhBDVIATapma2t79uxZVjkyMpIfS+2vX7+eb5aVlbm7u1Ogpw4sWbKEKosuSm3fNJ+Ogn5iNScnJyRUw1SXKaZzjeCWBVD/DGoWNw4YUplMOqHq5BcfHjx40KpVq3379tH6yJEje/XqFR4evm7duokTJ1LsY3UoUVlaWlLc7NixI3vQyEjVJyEhIcOGDaP4y98KF1KbUOPj483NzXlhaWkpvUDnzp1jm8HBwZMnT2brMhMqoeDYr18/6uSlS5coLDZt2jTwRadPn2aVt2zZwo8NCgpavHgx36Q037ZtW2rHUomOosgr/Hir2r5pPp23tzcvtLGxQUI1TDqZYrrSCG5ZAPXPoGZx44AhlQkJVQcoIK5evTorK4sSFQ9eoaGhwoRKIYxWJk2aNHbsWFaooT53+fJlCwuLwsJCUbnahJqZmUmvyJ07d1hhenq6cNPPz2/NmjVsXWZC5eE4MjLS398/OzubGhR+zYujyvzteNLz/7N372FRHPnewBEVBW8YREDuCgFEEcVboiaKOWo2yFnNUVRyTuKq6wVdTXxiYozRB3RNNJ7NGvZEXS/rSmLOsvGSbGISjeDreiE+XkADqKAE5CoXFRBEYN7fmVoqTU93M4wz48z09/OHT01VdXV1YXW+GXrGwYO3b9/Oyg8ePAgMDKTBKZr7+/vPmjWLKmfPnr1w4ULeX3JuyqfTvXxBO1gKY20xo7CBWxaA+VnULrYNWFI9IaG2W1FR0c6dO9kDkY2NjZ988kmnTp3S09N//vlnWpArV65Q/Y0bN9zc3IQJlaW9u3fv+vj47Nu3j8py/evq6vjn1r/77jtKqPx7ADjJiNbc3EzxjpIfFWhiMTEx48aNYx1++OEHBwcH/thruxJqQ0PD/Pnzn332WSpHRkZSwq6pqdFoH1E4ceIEe2SWOnt6erI0STPp2rUrT8bLly+Pjo5m5cktn5QqLy93d3c/duyYRnFuCqfTvXz+EiyHYVvMRGzglgVgfha1i20DllRPSKjtVlpaGhoaam9v36dPny5dulD5yy+/ZE0rV650dHQMCQkJCAhYsWKFbkIlKSkpzs7O7KPxkv1v3rz51FNPDRo0KDg42MXFRRQlGbmIlpmZGRYW1rdvXzqQol5OTo5G+xkje61eLTp27Ejn/cc//sFHkEyoTk5O1JlmS0mXIrhGm86joqK6d+8eFBRE9eHh4exD+tQ5Li7O19eXLoSO2r17Nxvk1KlTtEr8O7N4QiUHDx6k/p9//rnC3BROJ3n5YGkM22ImYgO3LADzs6hdbBuwpHpSdUJt82nlqqqqpKQk/rWdQrW1tdeuXaO0KqovKyujev5h/DZJ9qccdv369dzcXNF3muqJgp3wi1STk5PnzZsnaP8/r776qsGprrq6OisrS/hALYuM9fX1FJHv3bsn6NsGfeamezqwFm1uMXOygVsWgPlZ1C62DVhSPak6oSpIS0ubPXt2UFAQ+2iOVfvhhx8SEhJElevXr09NTRVVGkz0pqb+zDA3AMa2b1kAADYGCbWVqqqqbdu2hYWFeXh4+Pj42EA8NY9ly5alpKSIawEsiU3esgAAbBUS6r+wN029vb09PT0pngYEBCCeAtgSG7tlAQDYNrUnVP6mqa+vr7sW4imATbKNWxYAgEqoOqEmJiYGBgayYAoARmdRHwiwgVsWgPlZ1C62DVhSPak6oX744YdVVVU7d+585pln2Fc+sf+s+vr6njp1StwbANrJor5UxQZuWQDmZ1G72DZgSfWk9oTKy2lpaYsXL/b39w8LC0NIBTAKi7oR28AtC8D8LGoX2wYsqZ6QUFvhb6n269fPy8sLIRXgcehusSfIBm5ZAOZnUbvYNmBJ9YSEKo29pRocHIyPTAEYTGGLmZ8N3LIAzM+idrFtwJLqSdUJtc2nlRX+TSkAaFObW8ycbOCWBWB+FrWLbQOWVE+qTqgAoB64ZQEAWBEkVABQBdyyAACsCBIqAKgCblkAAFbkcRMqWb9+Pb2kP1FGGWWULbY8ZcoUOyRUAAArYSeu0JsNvCGBp5UBTMqitpgN3LIAzM+idrFtwJLqyZgJ9dGjR/tbFBUVNTY2PtLR3NwsGOMJs+1vfCgpKeE/jvr6enEzgOlZ1BbTvWUBQJssahfbBiypnoyZUKurq6nG0dExKCjo1KlT3bp1s9NBRwnGeMJs+29JWloa/SDox0HLfufOHXEzgOlZ1BbTvWUBQJssahfbBiypnoyfUMeMGcNevvPOOytXrnz55Zep0sPDY6XW//t//4+1Njc3FxYW0iH8cPYma2NjI69hSkpKbt68WVtby2t4t/Ly8rq6Ot16jr2PK6xhWE/6W0LToHJTU5OwlSZWU1MjrBG9Hyx8J1j3Qjia+e3btzU6h7MRRHNr1NK0rAPH5vao5dJEE+b1nGjY559/HgkVnhSLuhHr3rIAoE0WtYttA5ZUTyZMqMzRo0epctSoUcLKv/71r3369GHvqk6cOJFiHEUo9pL07NnztddeY8GLyqyyQ4cOM2bMaGhoYD19fX3Z5x66dOnyl7/8hXqy+qCgIOGJqBtViuIj70l/S1JSUqhMMZo1JSUlubq6stPNnDmTH9irV69/TU7r2LFjrF73Qlh9cnKyp6cnq580aZLu28nUITY2lgrHjx+n/hTB7bRLJ1wHhuYmvDThhPW5ZCRUeIIs6kase8sCgDZZ1C62DVhSPT2BhJqent6xY0cKcF999dVbb71FrS+++CILW/7+/tQaGRlJ5aysLOq8bdu2CxcuZGZmzpo1iyr37t3LM1xCQsKnn37q5OTk6OhYUlKiT1xjeM/Tp08LA19GRkanTp0GDRpEZ9yyZQvVv/766+yQHj16UNP+/ftHjx5t15JQJS+E6q9evdq5c2fK1nv27Pnuu+8SExNp/leuXBk6dCj1+eabb6h87969tLQ0ehkTE0OHvP/++1TevXs3m5uHhwed65133mFzQ0IFK2VRHwjQvWUBQJssahfbBiypnp5AQqX/e6Cat99+W6P9lXSXLl0cHByKi4vttM+wPvfcc926daNcRU3Nzc2UFMePHz9w4EB3d3fqsGrVKhbL3Nzc2GjsKYIvv/yS1VNgfeGFF6hyx44dGp24xvCeEydOHDZsGA98W7dupXJoaCilxmnTplE5ODhYo/3FOiVRFxcXKlOTXUtClbyQR48esXF4uuVoZaj+xo0bvGbkyJF0CM2HptG9e3eap2QYlZuwPpeMhArA6N6yAADAYj35hOqgxRKqq6vr5s2bn332WUp7qamp+/bto8oJEyYcPHgwLi6OysuXL2exjAIrG02UUNkILAseOnRIIaFST4q/ixYtsmsJfGxiY8eOfatFfHw81WdnZ1P9kCFDNIoJlV1IuxJqUlIS1SxevJj+/M1vfqNp/baoKKHqTlifS0ZCBWB0b1kAAGCxnkBCvXz5suiX41OmTGFhi9LVjz/+OG/ePCp//PHH7Hffs2bNunjxIo1gJ0iodtrf8n/22Wei3/ILR9i5c6dCQtX9pTn7LX9wcPDp06fT09P37NlDiZACJQt/lFz37t07cuRIKr/55ptFRUWSF0LjXLlyhf+W//vvv09MTGTn1U2oDx8+dHNzY5fD3vaXnJtkJe+sfMlIqACM7i0LAAAs1hNIqISinouLC0tmEyZMyM/P57mTdO/e/aWXXqqoqCgsLAwMDKQaZ2dn9uYlT6iUw1588UUqODg4UBDUtMQ1pkePHtOnT79//367Eir59NNPeWSkQTZt2kRT5cMKsbdRdS+EjfP55597eHiw+kmTJrFK3YRK3nvvPTvBs6SSc5Os5J0ZuUtGQgVgdG9ZAABgsYyfUHv27ElR7Ny5c4K+Epqbm2/fvk2JStzQWmNjY0FBgfDboIRxrby8/MGDB7/0bie5p5WLi4tpbuzLBFhCFbbSfOwEH+dXuBA2jri2NcrENJopPtl38eJF+kGwL0NAQoUnQm6LPRG6tywAaJNF7WLbgCXVkzETakNDw5YWt27d+qWrUQkT6mPSJxdSzluzZo2w5t69e1STk5MjrDRMeHh4x44d/fz8JAPuY8rPz+c/jsfJ8QAG02eLmY3uLQsA2mRRu9g2YEn1ZMyEah6Ug48ePXrq1ClxQ/s98b8ln3/++d/+9rfKykpxA4BNeOJbTOhJ3bIArJpF7WLbgCXVk/UlVCPC3xIAk7KoLWYDtywA87OoXWwbsKR6QkIFAFOxqC1mA7csAPOzqF1sG7CkelJ1QsXTygAmZVFbzAZuWQDmZ1G72DZgSfWk6oQKAOqBWxYAgBVBQgUAVcAtCwDAiiChAoAq4JYFAGBFkFAN8dlnn6WmpvKXFy5cSEhIOHv2rKALAFgWNd+yAACsjqoTqsFPK0+ePJl/jX9zc3NERAQtxZYtW1r3AlA7g7eYKdjALQvA/CxqF9sGLKmeVJ1QDf7GB2FC/dvf/ubi4hIYGMgSalVV1blz51JTU4uLi3n/0tLSoqIi/rKpqamgoED4Rf2NjY0XLlw4e/ZsdXU1r6Sjamtr+UsasK6ujtXzfyOqvr6ehqI/qUwDFuhoaGhgPSVPISQctqamhv97rQ8fPrx06dLly5f5UKwzza28vDwlJSUvL4/Xa+RXQHLOctdIg1RUVPB6UlhYyJrAihi8xUzBBm5ZAOZnUbvYNmBJ9YSEagieUCn2BQUFbd26NSIigiVUHx+fESNGjB49umvXrps3b2b9hwwZ0qFDh2vXrrGXf//732npXn31VfYyOzubAm5wcPDYsWNdXV2PHj3Kj9q/fz8rkwEDBhw6dIjVHzhwgFUuWLCAhjp27BiVaUqhWo6Ojl5eXqxMg2vkTyHEh6UsGBAQsHHjRiqfP3+eroiaaCiaQEZGBu8cGxvr5+dHA9Lp+JVq5FdAcs5y10iVVG5ubmb16enpnTt3pjjLe4JVMHiLmYIN3LIAzM+idrFtwJLqCQnVEDyh/vnPf/b29q6vr+cJlTIr6/PFF1/069ePlSmHUWhbtmwZe/n888+PHDmSJVQKYRTm1q5dy5qOHDni5ubG3laUS2887f3444/UuXfv3iztcaNGjRIeqHAKITZsUVHR008/HR8fr9FeS0hIyKpVq1iHRYsWDRs2jKVG6kzzYW8Dnzx5kuJjbm4u6ya3ApJzlrtGWtI+ffrw61qyZMnMmTN5N7AWBm8xU7CBWxaA+VnULrYNWFI9IaEagiXUuro6Ly+vXbt2UQ1PqBrt+45fffXVSy+9xCMp5bA//elPnp6e1dXVGRkZ9HLlypUsod68eZOWkULepRa9evU6d+4cO4qS4vkWdC5hQm1qaho+fPju3btpWOWEqnAKIRr2o48+Cg4Onj9/PqvJzs6mA8vKythLyqD0Mj8/n3XesGEDP5YuPzExkb+UXAHJOctdI3nzzTdnzJhBBQrTNOEffvihZXiwGgZvMVOwgVsWgPlZ1C62DVhSPak6oRr8tDJLqBRJKc+xtwyFCXX16tWTJk3q378//702e6dwyZIllFMXLFjw5z//mSdUCo729vaTWztz5gw7KiwsjFc6OTkJE+onn3zyzDPPNDc3t5lQFU4hRMM6ODhQrKQB2ZujqampnTp14h0okdNPPC0tjXVm0ZyJiop69913+UvJFZCcs9w1arSBuEuXLqWlpXv27AkMDOS/8QcrYvAWMwUbuGUBmJ9F7WLbgCXVk6oTqsEoSy1btszFxeXvf/87qxEmVObq1audO3euqqrStCTUzMxMSlpeXl4PHjzgCTUvL4+WkX8sSYgdxV8Kf8v/8ccfu7q6Xrp0iV62mVAVTiFEwy5dupQKsbGx7M3LnJwcOrCwsJB1yMrK4i+pM39sgAwePHj79u38JSNaAck5y10jM2XKlA8++GD06NH4ngR4fGq+ZQEAWB0kVENQQu3Ro8eIESN4DUuodXV1/JPy3333HeUz9gF2nsPWrFmzc+dOKvCESiIjIykR1tTUaLTPjJ44cYK9LyuX3qjew8ODpUmNHglVI38KIfY2JxXu3r3r4+Ozb98+9kVaCxcupAL1j4mJGTduHO9M52Wpl2bVtWtXllwVVkByznLXyBw5cqRPnz5dunS5c+cOrwQwjJpvWQAAVgcJ1RCUUOnajx8/zmtYQr158+ZTTz01aNCg4OBgFxeXvXv3slZRDtO0TqhFRUVRUVHdu3cPCgpydnYODw9n3+skl96ovm/fvpQjWb0+CVXuFEI8oZKUlBTqduvWrczMzLCwMDodXQ5dY05ODu8cFxfn6+sbEBDg5OS0e/duVq+wApJzlrtGhmKxl5fX7NmzeQ2AwdR8ywIAsDpIqEqqqqqSkpJKSkrEDfIo+V2/fj03N1c3Aiqrrq7OysoSfkmq0Rl8Cgq4wi831bQky/r6eoqw9+7dEzYZvAK6aMI9e/Y8efKkuAGg/dRwywIAsBmqTqgKTyufO3fuP/7jP4KCgnQ/UQQanfc+TeHYsWOxsbGjRo0SN4D1UNhi5mcDtywA87OoXWwbsKR6UnVC1f3Gh6qqqq1btw4aNMjDw8PHxwfxVM6yZctSUlLEtUY1bdq0efPm3bp1S9wA1kN3iz1BNnDLAjA/i9rFtgFLqick1H9hb5p6eXlRNu3Xr19gYCDiKcBjsqgbsQ3csgDMz6J2sW3AkupJ7QmVv2nq7e3troV4CmAsFnUjtoFbFoD5WdQutg1YUj2pOqHGxcVRGGWplMVTADAii7oR28AtC8D8LGoX2wYsqZ5UnVBPnz5dVVW1c+fOZ599dtCgQSEhIew/qz4+Pvj8OMDjs6gPBNjALQvA/CxqF9sGLKmeVJ1QhdLS0uLi4vr37x8REeHp6YmQCmBjbOyWBQBg25BQW+Fvqfbr18/LywshFcBm2OQtCwDAViGhSmNvqQYHB+MjUwC2wbZvWQAANgYJVYkB/6YUAFgmNdyyAABshqoTKp5WBjApi9piNnDLAjA/i9rFtgFLqqfHTai//vWv/2C1pk2bJq4CAOOxqC1GNyskVID2wlcjGR2WVE+Pm1ABAKwIEipAuyBOGR2WVE+GJ9T8/Pw/Wrlp06aJqwDAeCxwi9GNS3wvAwB5iFNGhyXVk+EJ1QbgbwmASWGLAVg77GKjw5LqSdUJFU8rA5gUthiAtcMuNjosqZ5UnVABAAAAwAIhoQIAAACAZUFCBQAAAADLgoQKAAAAAJZF1QkVTysDmBS2GIC1wy42OiypnlSdUPGNDwAmhS0GYO2wi40OS6onJFQAMBVsMQBrh11sdFhSPSGhAoCpYIsBWDvsYqPDkuoJCdW0Hj58KK5SAXVeNegywxYDAJPCLjY6LKmeVJ1QFZ5W/uyzzxK0Nm3atG/fvoqKCnEPeYcOHXrhhRfc3Nw6d+68dOlScbONUudVgzKFLQYAVgG72OiwpHpSdUJVMHny5CFDhsTFxS1cuHDEiBG9evXKzMwUd5KSmJjo7u5+4MCB0tLSpqYmcbONUudVAwAAgIkgoUqjhLp8+XJWbm5uDgsLe+utt6hMCay2tlbYk1oLCgoaGxupXF1d3a1bt/Pnz1/Qqq+v593YgeXl5SkpKXl5eb8cr9HQy9TU1J9++olnu8rKygIdDQ0NfBzh4bponOvXr9OYdBSroaNEo9XV1fH+Dx8+vHTp0uXLl9kpON1xNFKdFa5aRPdYTVtzq6qqEjbx5wf0XzTdFRP+yAAAAMACIaFKEyXUIUOGrFu3jspU2L9/v7AnRSg7O7sCbYY7deqUo6Nj//79Bw4cGB4e7uXllZaWxrrRgbGxsX5+fmPHjqU+mzdvZvWvvfaav79/ZGQkNQ0fPpw9TrBmzZpQLepJg7BydnY2G0c0AZFr167RqX19fSdMmODu7n748GGN9ig+DnFwcDh06BDrT8nSx8eHOlD9gAEDMjIyFMaR7Kxw1UKSx2oU50bi4uJ69+7Nmuzt7elcmnYumu6KCX9kAAAAYIGQUKVRQqWwRSF16dKlzz777KRJk8rKyjRSAVEYd44dO0bl3/72t6zp7bffDgwMfPToETuQYlllZSWVT5482blz59zcXCrznNTU1DR9+vTVq1ezl8yoUaNEp9OdgBCF6REjRsybN4+9s9jY2Hj37l2NzlE0E5YCqUNISMiqVatY/aJFi4YNG9aspTuOXGeFq+bkjtXIz41ZvHgxdWblXr16sYTarkXTXTEkVAAAAAun6oSq8LQyJdQxY8Zs2rRp48aNc+fO9fX1ZdmI4k58fPz58+ezs7PZr7OFcYeiJ5WvX7/OBqmoqKCX7M1COnDDhg18/IiIiMTERI02Ux4/fvyPf/xjQkJCdHQ0nZf30eiELY3UBIRycnLojEVFRaJ6uRRIg1B/Fr4JhWZ6mZ+fLzmOXGeFq+bkjtXIz42hxedvZvOE2q5F010xJFSzUdhiAGAVsIuNDkuqJ1UnVIVvfBD+lp+88847oaGhGm3cCQsLo9aRI0e6uLgcPnxYGHcuXLhA5ZqaGn5g165dv/vuO3bgrl27eH1UVNS7775LhalTpw4dOnT9+vXbtm2bM2cOpSveR6MTtjRSExC2Uljs1KmTsIaRS4GpqanC/nV1dTT/tLQ0yXHkOitcNSd3rEZ+bgytD+VLVuYJtV2LprtiSKhmo7DFAMAqYBcbHZZUT0io0kQJ9U9/+lOPHj00rePUhg0bwsPDhXHn7t27VP7pp59Yh+LiYv6SDly7du2/htNoBg8evH379tzcXHt7+/v377NK6qActjRSExC25uXl0RlFn8TSyKdA9l5pYWEhq8/KymIvJceR66xw1ZzcsRr5ufGXycnJrMwSansXTXfFkFDNRmGLAYBVwC42OiypnpBQpVFCXbJkSXV19b179y5evDho0KDo6GiNIO40NDTMnz9/3LhxorhDB86ePbuxsbG5uXnBggXUnz3KSQVPT8/bt29rtF8d2rVrV8pnP//8Mx175coVqrxx44abm5ty2NJITUDYSsaPHz99+vQHDx5QmWIc+029XAqkSUZERCxcuJAKNOeYmBg+oO44Cp3lrppTOFZubnV1dfQD6t27N3uUVtOSUNu7aLorhoRqNgpbDACsAnax0WFJ9YSEKo0il51Whw4dPDw85s6de+fOHY027jg5OVFUcnZ2pqyTkZEhijt5eXnst8l9+/YNDQ29evUqqx+i/XZVX1/fgIAAGmH37t2sfuXKlY6OjiEhIVS/YsUK5bClkZqAsJXk5+dPmDChe/fuTz/9NMW777//nh0lmQJJZmZmWFgYzZbmTCEyJydHYRy5znJXLSR3rNzc4uPjx4wZc+bMGd7Ef8vfrkXTXTEkVLNR2GIAYBWwi40OS6onVSdU0z2tXFJSwn+jzbAcVl9fT0Ht3r17wqaysrJr164Z9+s5KYRlZ2e3+c2pXFFRUXFxsbhWZhy5zrpXrUvu2PYyxaKBnugHnZSURH83xA06TLfFAMA8sIuNDkuqJ1UnVHMSvVMIYNXOnDkTHBz8yiuvSH73LQAAwGNCQjWTZcuWpaSkiGsBrBaFVB8fHw8Pj/Dw8P/5n//R5y1VAAAAPSGhAoCBKKQGBARQSPX29qa0irdUAQDAWJBQAcBwPKS6a/n5+eEtVQAAeHyqTqjsv6kAYHQUW0+cOIEPBABYO+xio8OS6knVCRXf+ADwmM6cOePv789SqZeXV2Bg4IgRI3bu3MneQ8UWA7B22MVGhyXVExIqABiIx1MKpn5+fgsWLBA9h4otBmDtsIuNDkuqJyRUADAExVNvb28PDw/hm6Yi2GIA1g672OiwpHpCQgWAdmPfh6r7pqkIthiAtcMuNjosqZ5UnVDxtDKAAfBvSgGoB3ax0WFJ9aTqhAoAAAAAFggJFQAAAAAsCxIqAAAAAFgWJFQAAAAAsCyqTqh4WhnApLDFAKwddrHRYUn1pOqEim98ADApbDEAa4ddbHRYUj0hoQKAqWCLAVg77GKjw5LqCQkVAEwFWwzA2mEXGx2WVE9KCTUjIyPO+v3+97//g4xp06aJqwDAeLDFAKwddrHRYUnl5OfnC1OoUkKleGcHAAAAAGBif/zjH4UptO2EGhUV9XvrtGDBApr/0qVL/wgAAAAAFunXv/61IQmVol6ldfryyy9p/ikpKeILAwAAAADL8Ic//OFJJtShQ4d6e3vv37+fyteuXbt8+XJubq64k1EhoQIAAABYuCecUF1dXWm07du3U3nSpElUnj9/vriTUbU3oT569Gh/i6KiIl5fU1NDkbqkpETQ15j+93//l/4sLS09ceKEuM160Prw1auvrxc3AwAAAEgxR0K9c+fOjz/++PXXXx8+fPjixYvCJp5QKe09//zzVJ4zZ87Vq1ezsrKE3YyozYQq+ncdqqurqb+jo2NQUNCpU6eopry8fObMmZ06dbLTGjx48MmTJ4WHGMVvf/tbWpCBAwcmJyeL26xHWloarRutHi0U/TUQN4Mq4Z9OAbB22MVGhyXVZY6EOnToUBbmmDFjxhQWFrImnlCDg4OFfZ566qnWYxhNmwlV9J1kLKHSnHkNlVnNrl27li5d2qFDBycnJ0rYrPXRo0eNjY1UaG5upnJTUxOvF+KjlZSU3Lx5s7a2ltdoWgbJzc0tLS3lA/J6jc7gQq3PY8gE6BSiznQ61kQ/uJqaGt6TBuetbEqszOr5qdn/eyChAoOv/QOwdtjFRocl1WWOhPq73/0uMTHx0KFDe/fu9fPzo8PXrFnDmnhCff/99/v3709lirMrV65cu3Zt6zGMhn2Wn70bKkk5of7zn/+kl7169bp//z6riY2NtdN+OQCVKYRROSgoiMoUgqn88ssvU7mqqsqutRs3blB9z5492UuKuTNmzGhoaBAN8tZbb1F51KhRCoMLsT5CBkygW7durfvaJScnJyUlsR8W9Zw5cyYtC/VMT0+nSvqZUsZNSEigVvr7lJWV5eHh4enpmZ2dzWaFhApCuBEDWDvsYqPDkuoyR0ItKCjYsWPH6tWrKcYNGTKEDn/ppZdYk5mfQ128eDGdYsWKFeKrElBOqH/605/o5YQJE3iHXbt2Uc24ceM08iGyoqKCym5ubvv37/f397drCYjbtm27cOFCZmbmrFmzqJISvHAQinqdO3e2a39CpYBIJ3rnnXcMmwC9vHLlCnvn+5tvvqHymTNnOnXqNGjQIOq8ZcsWqn/99dfZGakznc7b2/vVV1+10/74+vbt6+vrm5uby2eFhApCuBEDWDvsYqPDkuoyeUK9fv26l5cXHeLi4kLxlEVSCnys1ZwJVZ94qtH5WyJKqImJiXatE+qf//xnqnnuuec0LQHRyclp4sSJw4YNs2sJiCUlJVQeOHAglSMiIuy0AbG5uZnS3vjx46ne3d2dKletWsUHoSQaGRnZsWNHu9YJVTQ45eNuWrS8wmM1rVNsuybAsIcZWJDdunUrlUNDQ2NiYqZNm0bl4OBg3jM5OdmutW+//Za3apBQoTXciAGsHXax0WFJdZk8oX7yySd22nhaXFxML2fMmGEnk1B/9atfUXnu3LnCw41Fz3iq0XlaWc/f8i9btkzTEhDpoij5LVq0yK4lIF68eJHKFNQ0goC4b98+O23YPXjwIFvV5cuX80Hs7e3ZsHatE6po8NTU1HlaVMP76CbUdk2AESZU2jlUHjt27Fst4uPjWbeqqip/f39nZ2dfX1/qExAQQHE5JCRE+LgqEioI4QMBANYOu9josKS6TJ5Qk5KSqH+nTp3Wr1+/evVq9hF4yYTKUlfv3r1nzpyZkJDQapTHo3881aX7Salx48ZRzbPPPrtjx44lS5awT0pdv35dIxMQMzIywsPDqcxSHQ+I77//PhVmzZpF8ZEyqF3rhEqGDBmSnZ1t1/7f8j/mBBhhQqUR6AcXHBxMWyg9PX3Pnj2UkjXaT0dFR0fTChw5coQ/h/rpp59S4ZVXXuFDIaECAABAu5g8oVIumTp1qp0WRS6F91Ap+owePbpLly5UExkZ2WqUx/A48VQjlVArKipmz57NnhAlFP7++c9/sibJgLh79253d/c33niDfQ6JB8TCwsLAwEAqOzs7x8TE2LVOqBT7KA5SN7vHTqjtnQAjTKiEcqebm5udVo8ePTZt2kSVH3zwgV3LswE8oVKZrTkleHYsEioAAAC0i8kTKpOZmXnhwgVxrek9ZjzVtCTUnj17UmI7d+4cr6+trc3NzX3M1NXY2FhQUCD5pVHm0d4JFBcX3759m3/7VZsuXrxI68a+MeAx1woAAADUw0wJ9Yl4/HhKGhoatrS4deuWuBkU5efn89V78OCBuBkAAABAis0mVIPjKZ5WBjApbDEAa4ddbHRYUl0GJtQFCxZ8acHY1/IbEE81+MYHABPDFgOwdtjFRocl1WVgQrV8hsVTDf6WAJgYthiAtcMuNjosqa52J9Tf//73dtp/5DPFgin8o6Ztwt8SAJPCFgOwdtjFRocl1dXuhCp5gC3B3xIAk8IWA7B22MVGhyXVJRk4VZ1Q8bQygElhiwFYO+xio8OS6pIMnKpOqAAAAADwZEkGTiRUAAAAAHhiJAMnEioAWLqHDx+KqwxirHEAAMCIJAMnEioAPBmPHj1KSkpauHDh3Llz6W5TVVUlbD106NALL7zg5ubWuXPnpUuXCpvaxVjjAACAiUgGTlUnVDytDGBSClvs7t27I0eODAwM3Lhx40cfffTcc895eHj89NNPrDUxMdHd3f3AgQOlpaVNTU2tD20HY40DoFoKuxgMgyXVJRk4VZ1Q8Y0PACalsMXmzZtH8fT+/fvsZXNz87Rp0wYNGkSF6urqbt26nT9//oJWfX09P4qCZm1tbXl5eUpKSl5eHq8n9DI1NZUyLk+iCuNotL/xv3Tp0uXLlxsaGlhNZWVlgQ7eqju+XH82SdZHDvURHVhXV8eaqqqqhPXCJxP0nwM1NTY20lWfPXuW1oF1ppoCwYB37tzhTffu3SspKWFlACGFXQyGwZLqkgycSKgAYCpyW6ympsbBwWHPnj3CyuzsbLrhUAI7deqUo6Nj//79Bw4cGB4e7uXllZaWxvoMGTIkNjbWz89v7Nix1Gfz5s2s/rXXXvP394+MjKSm4cOHV1RUUKXCOBRbfXx8aLTQ0NABAwZkZGRQ5Zo1a0K16CjqzMo0K7nx5frTsPv372cnkkN9+CGEVuPQoUOsKS4urnfv3qze3t6e/6Mk7ZoDof8BCA4OpoVydXU9evSoRvu/AXPnzp0yZQqLsJMnT6abPBVu3brl7e194MABdiIAIbldDAbDkuqSDJxIqABgKnJb7Mcff6R7y5UrV0T1PXv2pNvOsWPHqPW3v/0tq3z77bcpbD169EijDXYUKCsrK6l88uTJzp075+bmUrmgoIB1bmpqmj59+urVq6ksN05jY2NISMiqVatY/aJFi4YNG0bpjb0ko0aNEkVMyfE5UX89E6qwD10UT6iLFy+mKbFyr169eELVfw50LaNHj167di17eeTIETc3N/a2Ll07HRsTE0ODsIRaUlJCy7Jjxw4+FICQ3C4Gg2FJdUkGTiRUADAVuS1G4ZLuLfn5+aJ6b2/vjRs3stbr16+zyoqKCnrJ3uakYLdhwwbePyIiIjExUaPNZMePH6ebVUJCQnR0NGUvTctZdMdhb9aWlZWxesq4osnoJlTJ8TndhBofH3/+/Hk6kejRAk4hoc6dO3f58uWsLEyo+s/h5s2bdEV0+Zda0Djnzp1jrTSloKCghQsX0gjr1q2jmSxbtuyXgQBak9vFYDAsqS7JwKnqhIqnlQFMSm6LUWqkewvPXkxDQ0PHjh3/8pe/XLhwgVpramp4U9euXb/77juNNtjt2rWL10dFRb377rtUmDp16tChQ9evX79t27Y5c+ZQXKNKuXFSU1M7derEK+vq6qgbfwBAo5M4NTLjc7oJNSwsjPLfyJEjXVxcDh8+LOj7Sx+5hErnooDLysKEqv8cKJva29tPbu3MmTOslQakWdHcHLSoydfXlz8QDCAit4vBYFhSXZKBU9UJFQCelP79+y9evFhYs2/fPgqOBQUFd+/epTsP/1x/cXExf0nBjv/ymgwePHj79u25ubkUyHjGog4svcmNk5OTQ4XCwkJWn5WVJXyp0UmccuNzugmVv9ywYUN4eDhv4hQSKpWTk5NZmSfUds0hLy+Pruj27dvCDsyDBw8CAwOpZ2Vlpb+//6xZs6hy9uzZCxcuFHcFADAXycCJhAoATwCFMAcHh7/+9a/sAdCzZ8+6u7uvXLmStU6ePJliU2NjI7UuWLCA8hz79DoVPD09WfaiSNe1a1dKlj///LNdy1OtN27ccHNz4+lNchwqR0REUCajAjXFxMSMGzeO9WdEiVNhfEYuoTY0NMyfP180OCOZUOvq6j788MPevXtTtmb1PKG2dw6RkZEzZsxg7x/TZZ44cYKulMrLly+Pjo5mfSa3fFKqvLycFv/YsWP8cAAAc5IMnEioAPBkfPbZZ15eXhTIPDw8unfv/t577/EvUcrLy2O/Iu/bt29oaOjVq1dZPQW7uLg4X1/fgIAAJyen3bt3s3qKto6OjiEhIVS/YsUKnt7kxsnMzAwLC6NKaqK0mpOTw+oZUdrTyI/P6CZUmhuFS2dnZ4qn7AlaEcmEGh8fP2bMGP7reE3r3/K3aw5FRUVRUVG0qkFBQTSN8PBwiss0VJ8+fYqLi1kfnlDJwYMH8bt+gMdRUlKSlJQk+pdHQE+SgRMJFQCeKOcB3wAAaUdJREFUmObm5ps3b2ZnZ0v+e6R0xxf+8l3TEuzq6+spYt67d0/YVFZWdu3aNfZOoYjuOAzFOB7X2qQwvtm0dw7V1dVZWVnsqw8AwNTofy+Dg4MXL14sfK4d9CEZOFWdUPG0MoBJGX2Lid56BABTM/outm3//Oc/vb29+/Xr98wzz+zcuVPyLVUsqS7JwKnqhIpvfAAwKaNvsWXLlqWkpIhrAcBkjL6LbR6FVD8/Pw8Pj7CwMH9/f923VLGkuiQDJxIqAJgKthiAtcMuNgALqe5aAQEBAwcOFL6liiXVJRk4kVABwFTYDRoAANy1afXEiRPIHrokAycSKgCYCrYYgLXDLjbAmTNngoKCfHx8WDD18vIaOHDg5s2b8R6qHMnAqeqEiqeVAUwKWwzA2mEXtxeLp5RKWTadNm2a8CvkNFhSKZKBU9UJFQAAAMBYKIz6+vp6eHgI3zSFNkkGTiRUAAAAgMfFvg/15ZdfFr1pCm2SDJxIqAAAAACPBf+m1OOQDJxIqAAAAADwxEgGTlUnVDytDGBS2GIA1g672OiwpLokA6eqEyq+8QHApLDFAKwddrHRYUl1SQZOJFQAMBVsMQBrh11sdFhSXZKBEwkVAEwFWwzA2mEXGx2WVJdk4ERCBQBTwRYDsHbYxUaHJdUlGThVnVDxtDKASWGLAVg77GKjw5Lqkgycqk6oAAAAAPBkSQZOwxNqRkZGnPX7/e9//wcAAAAAMLH8/HxxmtT6g1TgNDyhUryzAwAAAADQg1yklAycj5tQo6Kifm+dFixYQPNfunTpHwEAAADAZH79618rRErJwPm4CZWiXqV1+vLLL2n+KSkp4gsDACPBBwIArB12sdGpc0mVI6VkKxJqivjCAMBI8KUqANYOu9jo1LmkypFSstVSEurQoUO9vb33799P5WvXrl2+fDk3N1fcyajam1AfPXq0v0VRURHVNDY2PtIhPgwUlZSU8FWtr68XN4OVU+eNGMCWYBcbnTqXVDlSSrZaSkJ1dXWl0bZv307lSZMmUXn+/PniTkbV3oRaXV1N/R0dHYOCgk6dOkU1HTt2tNNx/vx58ZEgLy0tjdaTVpWW7s6dO+JmsHLqvBED2BLsYqNT55IqR0rJVrMmVIogP/7449dff3348OGLFy8Km3hCvXbt2vPPP0/lOXPmXL16NSsrS9jNiAxLqGPGjOE1LKEuWbJkpVbPnj1FCVXu7dWSkpKbN2/W1tayl7rvxTY3N/POhYWFNTU1rNzU1MRb6U9eZvX0Jz9K0zKs8CXhL2kOt2/fZuXWJxePI5wAQ334UKKy8FiFA9nkeWf2E0dCtT3qvBED2BLsYqNT55IqR0rJVrMm1KFDh9oJUNqjEMOaeEINDg4W9nnqqadaj2E07LP87N1QfcglVJ6rfH197QQJtaqqSngh5MaNG1TPgizp0KHDjBkzGhoaunXr1rqjXXJyMvVMSkpiy0I9Z86cSRNIT0+nGj8/Pwq4CQkJ1EQ/IwrxHh4enp6e2dnZLVP7P7GxsdTh+PHjVKb+di2Tp8GpMzvRpEmTaP6/nFjr5ZdfZiPoToAqWf+goCAq06ntWoallaTyv//7v+tzIP2PgfBESKi2Sp0fCACwJdjFRqfOJVWOlJKtZk2ov/vd7xITEw8dOrR3716KWXT4mjVrWBNPqO+//37//v2pTHF25cqVa9eubT2GcSxevJhOsWLFCvFVyWtvQq2oqKCXbm5u+/fv9/f3t2tJqNu2bbtw4UJmZuasWbOokpaCyleuXGHx/ZtvvqHyvXv3MjIyOnXqNGjQIOq8ZcsWanr99dfpcOpMedTb2/vVV1+10z4L0bdvXzp1bm5uy7z+JS0tjTrExMRQmVaVyrt377569Wrnzp0pJe/Zs+e7776jHwcLjjQmzfOdd96xawmOchNoM6HqcyASKgAAgHooR0rJVrMm1IKCgh07dqxevXrp0qVDhgyhw1966SXWZM7nUA2Ip5r2J9SSkhJ6OXDgQCpHRETYaRNqc3Mzhbbx48dTvbu7O1WuWrWK9aeRWR/2cuvWrfQyNDSUIua0adOoHBwczJqSk5PtWvv2229Zk8jIkSMdHBxohsOGDevevTtdAhuWRUZGLjjKTaDNhKp8oJOT08SJE2k+/EQaJFQAAACbphwpJVvNl1CvX7/u5eVFh7i4uFA8ZZGUwg1rNVtCNSyeatqfUC9evEgvKXtpBAl13759VJgwYcLBgwfZAi5fvpz1FyXUDz/8kF6OHTv2rRbx8fEa7cMD/v7+zs7O7HQBAQHdunULCQkRPfHJJCUlUR92yb/5zW80LblTn4QqN4E2E6rygfSDpoy+aNEifiINEioAAIBNU46Ukq3mS6iffPKJnTaeFhcX08sZM2awcMNahQn1V7/6FZXnzp0rPNwoDI6nmnYm1IyMjPDwcHrJwhlPqOy37bNmzaL8OmrUKDv5hMp+Vx4cHHz69On09PQ9e/ZQsGtubo6Oju7QocORI0f4c6iffvopFV555RV2oNDDhw/d3NzstNiDL1euXOG/5f/+++/5b/l1E6rkBDQtQdPd3X3v3r3006dyYGAgldkTAvy3/HIH6p5Ig4QKAABg05QjpWSr+RIqez+Pssv69etXr15NBTuZhMreYOvdu/fMmTMph7Ua5THoxtN2Pa3croS6e/duynBvvPFGQ0ODRpBQCwsLKc9R2dnZOSYmxk4+oRKKnjxf9ujRY9OmTR988IFdy4MBPKFSmV3ajh07+LHce++9Z9eSC5nPP//cw8ODDcs/KSUZHHUnoGkJmnLYJ6UUDpQ8ERKqrWrXFgMAC4RdbHTqXFLlSCnZar6ESvlj6tSpLLUMGTJE4T3U9PT00aNHd+nShWoiIyNbjWIo3Xiqaec3PrCE2rNnT5rzuXPnxM16a2xsLCgoEH2jk4Li4uLbt28LvyiqXdg7rLpXyoYVVUoyeAL6HHjx4kVaT/b9Bkiotkf3Lx4AWBfsYqNT55IqR0rJVvMlVCYzM/PChQviWhOTjKeadv4taWho2NLi1q1b4maLFB4e3rFjRz8/v/v374vbLEN+fj5f1QcPHoibwcq1a4sBgAXCLjY6dS6pcqSUbDV3QjU/uXiqUcHfks8///xvf/sbLYK4AcAsbH6LAdg87GKjU+eSKkdKydbHTagLFiz40oKxr+WXjKcatf4tATAbbDEAa4ddbHTqXFLlSCnZ+rgJ1fLJxVONWp9WBjAbbDEAa4ddbHTqXFLlSCnZanhCZd80tHTp0hQLpv8/agoAAAAApqAcKSVbDU+oyq0AAAAAAJq2QqNkKxIqAAAAAJiQcmiUbEVCBQAAAAATUg6Nkq2qTqjqfFoZwGywxQCsHXax0alzSZVDo2SrqhOqOr/xAcBssMUArB12sdGpc0mVQ6NkKxIqAJiKwVvss88+S9Bx8uRJcT8AMDGDdzHIUeeSKodGyVYkVAAwFYO32OTJk0NDQ+cJuLq6rlu3TtwPAEzM4F0MctS5pMqhUbIVCRUATMXgLUYJdfny5cKaUaNG8YRaVVVVIPDw4UPeLS8vLzU19aeffmpqamI1lZWVws5MQ0MDNTU2Nl64cOHs2bPV1dWsM9UUCAa8c+cOb7p3715JSQkrC5WWlooGr6urY/W1tbXl5eUpKSk0K9FRdIpLly5dvnyZzYRhh7AyTZvOyMo0B5oJ76Y7bUZhWVhrRUWFsKawsJBNldByXb9+nZaODmQ1ctelkZmAPpMX9iHFxcV8TI3MmsATZ/AuBjnqXFLl0CjZquqEqs6nlQHMxuAtppxQ4+LievfuHaplb2/P/2GO1157zd/fPzIy0s/Pb/jw4SyQrVmzhvV0dHT08vJi5WytwMDA4ODgsWPHurq6Hj16lDo3NzfPnTt3ypQpLCTRNOhGR4Vbt255e3sfOHCAnUhoyJAhfFji4OBw6NAhVh8bG0szofHp1Js3b+aHnD9/3sfHhzpQ/wEDBmRkZPCh9u/fz8p07FtvvcXKW7ZsoZmwsuS0GbllYWhkOhddIHuZnp7euXNnioxUvnbtWnh4uK+v74QJE9zd3Q8fPqyRvy65CegzeWEfQvNhY2rk1wSeOIN3MchR55Iqh0bJVlUnVACwTMoJdfHixYsWLWLlXr168SjG3/9ramqaPn366tWr2UuGRuDxiILa6NGj165dy14eOXLEzc2Nvb3X2NhIx8bExNAgLKGWlJRQJtuxYwcfSkgudVE9lSsrK6l88uRJioO5ubka7fghISGrVq1i/elChg0bxoJjmyFPYdoa+WVh6uvr+/Tpc+zYMfZyyZIlM2fO1GjHHDFixLx589i7zjS9u3fvamSuS2ECbU5e1EcjWCuFNQEA26AcGiVbkVABwOIoJ9S5c+fyVmEUo0xz/PhxuiklJCRER0fzYMQIE+rNmzfp9kXB8VILGufcuXOslcJcUFDQwoULaQQ6KeWqZcuW/TJQa3Kpi+o3bNjA6yMiIhITEzXa9yDp1GVlZayeYiu9zM/PZ4cohzzlacstC/fmm2/OmDGDCpQpqcMPP/xA5ZycHBqzqKhI1FnyuhQm0ObkWZ/4+PjzLby8vPj7snJrAgC2QTk0SrYioQKAxVFOqFOnTqWgw8rCKEb1Q4cOXb9+/bZt2+bMmUOHsHpGmFApY9nb209u7cyZM6yVBnRxcRk5cqSDFjX5+vrev3//l7EEJJMcq9+1axevj4qKevfdd6mQmpraqVMnXl9XV0c30rS0NHaIcshTnrbcsnCU/Lp06VJaWrpnz57AwED2JiWNKZwPJ3ldChNoc/KsT1hYGD/QycmJrZXCmgCAbVAOjZKtSKgAYHEmKyZUSkvJycmszKMYxS8KTzxHrl27ViGh5uXl0e3r9u3bwg7MgwcPKL1Rz8rKSn9//1mzZlHl7NmzFy5cKO6qJZnkWD3/bTgZPHjw9u3bNS3vWRYWFrL6rKws/rLNkKcwbY3MsohMmTLlgw8+GD16NI3JatiYup/lkrwuhQm0OXlRH41grRTWBABsg3JolGxVdUJV59PKAGZj8BaTS6h1dXUffvhh79692bOSGkEU+/nnn+mOdOXKFSrfuHHDzc1NIaGSyMjIGTNm1NTUaLSPB5w4caKxsZHKdN7o6GjWZ3LLJ6XKy8vd3d35Q5xCcqmL6j09PVmYo5quXbuyyEXnioiIoLxLBTpjTEzMuHHjdIeSC3mS01ZYFpEjR4706dOnS5cuwi8HGD9+/PTp0ymaU5kiPvuNv9x1SU5A1F9u8nJjKqwJPHEG72KQo84lVQ6Nkq2qTqjq/MYHALNpc4tVVVUlJSXpfouTXEKNj48fM2YM/722pnUUW7lypaOjY0hISEBAwIoVK5QTKuWwqKio7t27BwUFOTs7h4eHNzQ00FAU4IqLi1kfnlDJwYMHJX/XL5e6qD4uLo4Oock4OTnt3r2b98nMzAwLC+vbt6+Liwsls5ycHFZPh1DPXlqdO3emHMnKlG55yJOctvKyCFH+8/Lymj17trAyPz9/woQJNObTTz9NMff777/XyF+X5ARY/zYnLzemRn5N4IlrcxdDe6lzSZVDo2QrEioAmIrCFktLS6MAR2lSmKseX1lZ2bVr19i7evqorq7Oyspin7g3LpbG6uvrKXvxLwcVoqjHo3B7GTxtOrBnz56S/zoX/d9Cdna28PtKFRg8AWWPsyZgIgq7GAyjziVVDo2SrUioAGAquluMYtDOnTufe+65fv36eXt7f/vtt6IONkP0fqElOHbsWGxsrOitZQBlursYHpM6l1Q5NEq2IqECgKkItxh70zQwMHDy5MmDBw/29PT88ssvBX1tzbJly1JSUsS1T9S0adPmzZt369YtcQOAPPyH0ujUuaTKoVGyVdUJVZ1PKwOYDW0x/qbpiBEjXnzxRT8/P3d3d5uPpwA2A/+hNDp1LqlyaJRsVXVCBQCTOnHiRGBgIEXSwYMHuwMAgLu7+EapDsqhUbIVCRUATKi0tHTZsmX9+/fnd+cQLeN+QAoAACyZcmiUbEVCBQBzOHjw4Lhx4zw8PCikBgQEIKQCAKiHcmiUbEVCBQDz4W+pUlT18/NDSAUAUAPl0CjZquqEqs6nlQHMRmGLHTx48N/+7d+Cg4MRUgEsmcIuBsOoc0mVQ6Nkq6oTqjq/8QHAbNrcYnL/phQAWIg2dzG0lzqXVDk0SrYioQKAqWCLAVg77GKjU+eSKodGyVYkVAAwFWwxAGuHXWx06lxS5dAo2YqECgCmgi0GYO2wi41OnUuqHBolW1WdUNX5tDKA2WCLAVg77GKjU+eSKodGyVZVJ1QAAAAAMDXl0CjZioQKAAAAACakHBolW5FQAQAAAMCElEOjZCsSKgAAAACYkHJolGxVdUJV59PKAGaDLQZg7bCLjU6dS6ocGiVbVZ1QDfvGh6ampsOHD69aterVV19dvnz5F198QTXiTgBg6BYDAMuBXWx06lxS5dAo2YqE2m7V1dX+/v4rV67cunXrO++8Q+WXXnqpublZ3A9A9QzbYgBgObCLjU6dS6ocGiVbkVANIcyjubm5tA4//fQTe5mXl5eamkovhW+slpaWPnjwgJVrampu377NmyT7V1VVnTt3juqLi4t5pRANWNBaXV0da3r48OGlS5cuX77c0NAgPITOK+xfW1tLlZWVlcJKhh3ITkFTvX//vnCcxsbGCxcunD17lpI6r6TONGB5eXlKSgpdkbAzDUJTYi/v3LnDj7p37x7/19gl58YonI6/pFXilw8WxeAtBgAWArvY6NS5pMqhUbIVCfVxURbs2LEj5Soqv/baa/7+/pGRkX5+fsOHD6+oqGB9hgwZcuDAASoUFhYGBARs3LiR1cv19/HxGTFixOjRo7t27bp582ZWKUQDenl5hbZwcHA4dOgQ1Z8/f56OpVaqHDBgQEZGBj/k448/dnJyYv1p2L1791LlmjVrWI2joyMfMDs7W3iKbt26UfnWrVtUSU2BgYHBwcFjx451dXU9evQoG5w6xMbG0lVQPQ3F50xRfu7cuVOmTGGpd/LkyfTXhgo0mre3N1sTjczcNIqn279/PysTulJ2+WBpjLLFAOAJwi42OnUuqXJolGxVdUJ9nKeVv/rqq4ULF86cOZMi1F/+8hdWyXKqRvus6vTp01evXs1esoRaVFT09NNPx8fHs0qF/o2NjazwxRdf9OvXj5WFJCMaHRUSErJq1SpWuWjRomHDhvG3e+knNX78eFaOiIjgKZAZNWqUcECNIFU/evSIDnzvvfdoKArNa9euZR2OHDni5ubG3sukzjSHyspKKp88ebJz5865ubmsG82KLi0mJoaukSXUkpISWrQdO3b860wyc1M+ne7l85dgOR5niwGAJcAuNjp1LqlyaJRsVXVCfRynTp3atGnTypUr+/fv/5//+Z/sd/QUqo4fP05rkpCQEB0dTYGMdaZE9dFHHwUHB8+fP184iFx/jfbdUArBL7300rJlywRH/ItkRMvOzqafSFlZGatkjx/k5+ezlzRbPr6eCXXjxo00jcOHD/v6+n799dc3b96kASmAXmrRq1evc+fOsc4bNmzgx9L4iYmJ/GV9fX1QUBAFeprAunXrqLPooiTnpnw6CvrnW3h5eSGhAgAAWCzl0CjZioT6uMrLy3v06JGcnEzlqVOnDh06dP369du2bZszZw7FPtaHEpWDgwPFTU9PT/ZGIyPXn6xevXrSpEkUf/mvwoUkE2pqamqnTp14ZV1dHf2A0tLS2MulS5f+13/9FyvrmVAJBceRI0fSJK9cuUJh0d7efnJrZ86cYZ137drFj42Kinr33Xf5S0rzLi4uNI6DFh1FkVf4eKvk3JRPFxYWxiudnJyQUAEAACyWcmiUbEVCNQIKiFu3bs3NzaVExYPX2rVrhQmVQhgVYmNjZ8yYwSoV+nNXr17t3LlzVVWVqF4yoebk5NBPpLCwkFVmZWUJX44YMeK///u/WVnPhMrD8YYNG0aPHp2Xl0cDCj/mxVFn/ut4Mnjw4O3bt7PygwcPAgMDaXCK5v7+/rNmzaLK2bNnL1y4kPeXnJvy6XQvX9AOAAAAFkQ5NEq2IqG2W1FR0c6dO9kDkY2NjZ988kmnTp3S09N//vlnWpArV65Q/Y0bN9zc3IQJlaW9u3fv+vj47Nu3j8py/evq6vjn1r/77jtKqPx7ADjJiNbc3EzxjpIfFWhiMTEx48aNYx1++OEHBwcH/thruxJqQ0PD/Pnzn332WSpHRkZSwq6pqdFoH1E4ceIEe2SWOnt6erI0STPp2rUrT8bLly+Pjo5m5cktn5QqLy93d3c/duyYRnFuCqfTvXz+EgAAACyKcmiUbFV1QjXsaeXS0tLQ0FB7e/s+ffp06dKFyl9++SVrWrlypaOjY0hISEBAwIoVK3QTKklJSXF2dmYfjZfsf/PmzaeeemrQoEHBwcEuLi6iKMnIRbTMzMywsLC+ffvSgRT1cnJyNNrPGNlr9WrRsWNHOu8//vEPPoJkQnVycqLONFtKuhTBNdp0HhUV1b1796CgIKoPDw9nH9KnznFxcb6+vnQhdNTu3bvZIKdOnaJV4t+ZxRMqOXjwIPX//PPPFeamcDrJywdLY9gWAwDLgV1sdOpcUuXQKNmq6oTa5jc+VFVVJSUl8a/tFKqtrb127RqlVVF9WVkZ1fMP47dJsj/lsOvXr+fm5oq+01RPFOyEX6SanJw8b948Qfv/efXVVw1OddXV1VlZWcIHallkrK+vp4h87949Qd826DM33dOBtWhziwGAhcMuNjp1LqlyaJRsRUKVdvTo0SlTpgQFBbGP5li1H374ISEhQVS5fv361NRUUaXBRG9q6s8Mc4MnSGGLAYBVwC42OnUuqXJolGxFQm2loqLizTffDAgIcHd39/Pzs4F4ah7Lli1LSUkR14Lq6W4xALAu2MVGp84lVQ6Nkq1IqP9y9OjRiRMnenh4sGwaHByMeArwmNR5IwawJdjFRqfOJVUOjZKtqk6op0+f5m+asmxKBgwYgHgKYBTq/EAAgC3BLjY6dS6pcmiUbFV1Qj1x4kRgYCClUoqkLJ4CgBGJtxwAAKiScmiUbFV1QtVoP62/c+fO5557bvjw4RMnTvT29qb/rHp6egq/iQkAAAAADKYcGiVb1Z5QubS0tLi4uMDAwBdeeCE4OBghFQAAAMAolEOjZCsSaiv8LdV+/fp5e3t/++234h4AAAAA0B7KoVGyVdUJVeFpZfaWakhICD4yBWAwhS0GAFYBu9jo1LmkyqFRslXVCbXNb3xQ+DelAKBNbW4xALBw2MVGp84lVQ6Nkq1IqABgKthiANYOu9jo1LmkyqFRshUJFQBMBVsMwNphFxudOpdUOTRKtiKhAoCpYIsBWDvsYqNT55Iqh0bJ1sdNqGT9+vX0kv60uvK8efMk61FGGWWUUUYZZfrz9OnTkvUoG1xWZ/aYMmWKXVuR0sgJVdj66NGj/S2KioqoprGx8ZGOX4aAdiopKeErXF9fL24GAAAAsDy6oVFIstWYCbW6uppqHB0dg4KCTp06RTUdO3a003H+/PlfRoH2SEtLo7WlFaZlvHPnjrgZAAAAwPLohkYhyVbjJ9QxY8bwGpZQlyxZslKrZ8+ewoQq995qSUnJzZs3a2treY3ue7HNzc2sqbCwsKamhvdsamrirfQnL7N6+pP3ZKiVRqCZ8xrJc9GfVM86sErev1VXQb3uyI9aBmEDiiYjuhCFzs8//zwSKgAAAFgL3dAoJNlqjoTKs5Svry9PqFVVVXat3bhxg+pZiiUdOnSYMWNGQ0MDVXbr1q11X7vk5OSkpCRXV1fWc+bMmSwLpqenU6Wfnx9l3ISEBGqleWZlZXl4eHh6emZnZ/O5kb/+9a99+vRhA06cOPH27duS59qzZw/9GRQURK2vv/46lSltsxHkrkJ3ZFoEu5ZBUlJSqPzyyy+zQXQvRKGzBgkVAAAArIpuaBSSbH1iCbWiooLKbm5u+/fv9/f3t2vJdtu2bbtw4UJmZuasWbOocu/evVRJL69cuTJ06FCq+eabb6h85syZTp06DRo0iDpv2bKF6ik7srNQZ8qj3t7er776KtXPnz+/b9++dOrc3FzWgaEsa29vT7H1q6++euutt6jniy++KHkuCrtUDgwMXLBgARXWrVvHB5G8ChqZLlw0slzozMjI0L0Quc4MEipYC3X+0ykAtgS72OjUuaS6oVFIsvWJJdSSkhIqDxw4kMoREREs2zU3N1NKGz9+PNW7u7tT5apVq/hoNDLrRuWtW7dSOTQ0NCYmZtq0aVQODg7mPZOTk+1a+/bbb3kr8+GHH1L922+/rdH+Zr9Lly4ODg781/TCc7G8yDz33HPCQSSvQnLk4uJiqnRycpo4ceKwYcPsWkKn5IWwM+p2ZpBQwVqo80tVAGwJdrHRqXNJdUOjkGTrE0uoFy9epDKFLY0g2+3bt48KEyZMOHjwYFxcHJWXL1/ORxOmRpYCx44d+1aL+Ph41q2qqsrf39/Z2ZmdLiAgoFu3biEhIcKnPPkIPEc6aCkk1A4dOgwfPpwKNEk+iORVSI7MEqqrqytF8EWLFtm1hE7JC2Fn1O3MIKGCtVDnjRjAlmAXG506l1Q3NApJtj6ZhJqRkREeHk5lFit5tnv//fepMGvWLEp+o0aNspNPqOyX48HBwadPn05PT9+zZw+FOY32c0XR0dGUJo8cOcKfQ/3000+p8Morr/ChyOXLl0W/5Z8yZQpv1U2oQUFBDx48GDJkiKOjIx2r0c5B8iqoVfRbfhpZ7hf3khci15lBQgVroc4bMYAtwS42OnUuqW5oFJJsfTIJdffu3e7u7m+88Qb7IBTPdoWFhYGBgVR2dnaOiYmxk0+ohHKnm5ubnVaPHj02bdpElR988IFdy7MBPKFSefHixVTesWMHH43QKVxcXNgIEyZMyM/P502SCZXKOTk5NLcBAwbcvXtX7iqovHfvXtHICqFT90IUOmuQUMF6qPNGDGBLsIuNTp1LqhsahSRbjZ9Qe/bsSfHu3Llzgr7t0NjYWFBQoPu1UHKKi4tv377NvwqqXU6fPt3c3EyH379/X9z22No7sj4XcvHiRVpb9nUHSKhg+dT5gQAAW4JdbHTqXFLd0Cgk2WrMhNrQ0LClxa1bt37pCkaSn5/PV/jBgwfiZgAAAADLoxsahSRbjZlQAQAAAABElEOjZCsSKgAAAACYkHJolGxFQgUAAAAAE1IOjZKtqk6o6nxaGcBssMUArB12sdGpc0mVQ6Nkq6oTqjq/8QHAbLDFAKwddrHRqXNJlUOjZCsSKgCYCrYYgLXDLjY6dS6pcmiUbEVCBQBTwRYDsHbYxUanziVVDo2SrUioAGAq2GIA1g672OjUuaTKoVGyVdUJVZ1PKwOYjcFb7LPPPkvQcfLkSXE/ADAxg3cxyFHnkiqHRslWVSdUALBMkydPDg0NnSfg6uq6bt06cT8AALAGyqFRshUJFQAsDiXU5cuXC2tGjRrFE2pVVVWBwMOHD3m3vLy81NTUn376qampidVUVlYKOzMNDQ3U1NjYeOHChbNnz1ZXV7POVFMgGPDOnTu86d69eyUlJawsQv0vXbp0+fJlNqxG8aSlpaX8nyyuqam5ffs2KytclO74Gu04tbW1/GVxcXFdXR0r616XRrE/AICpKYdGyVYkVACwOMoJNS4urnfv3qFa9vb2p06dYvWvvfaav79/ZGSkn5/f8OHDKyoqqHLNmjWsp6Ojo5eXFytnawUGBgYHB48dO9bV1fXo0aPUubm5ee7cuVOmTGFZkKZBNzoq3Lp1y9vb+8CBA+xEQufPn/fx8RkyZAgNO2DAgIyMDI38SamJerJxCgsLAwICNm7cyMaRuyjJ8dk4+/fvZ2VCTYcOHaKC5HUp9AcAMAPl0CjZioQKABZHOaEuXrx40aJFrNyrVy8e5goKClihqalp+vTpq1evZi8ZGoFHNEqio0ePXrt2LXt55MgRNzc39hZjY2MjHRsTE0ODsIRaUlJCmW/Hjh18KI46h4SErFq1ir2kWQ0bNowG5x2EJ2VYQi0qKnr66afj4+N5veRFKYwvmTgVrkuyP38JAGBSyqFRslXVCVWdTysDmI3BW0w5oc6dO5e3ChMq5bPjx4/TTSkhISE6OpoGYfWMMCzevHmTbl8nT5681ILGOXfuHGutr68PCgpauHAhjUAnpWy3bNmyXwYSyM7OpnHKysrYy9zcXHqZn5/PO0gm1I8++ig4OHj+/PnCesmLUhifxqGAe76Fl5cXJU6F65Ls/69zA8gzeBeDHHUuqXJolGxVdUJV5zc+AJiNwVtMOaFOnTqVv/soTKhUP3To0PXr12/btm3OnDl0CKtnhGGRMpy9vf3k1s6cOcNaaUAXF5eRI0c6aFGTr6/v/fv3fxmrRWpqaqdOnfjLuro6uiumpaXxGsmESmO+9NJLnp6elZWVvF7yohTGp3HCwsL45J2cnChxKlyXZH8+MoAcg3cxyFHnkiqHRslWJFQAMBWDt9hkxYQ6YMCA5ORkVuZhLjc3l8IZz5Fr165VSKh5eXl0++KfUhJ68OBBYGAg9aT46O/vP2vWLKqcPXv2woULxV01mpycHBqnsLCQvczKyhK+1Mgk1KVLl1IhNjZ2xowZvF7yohTGl/ytvcJ1SfYXtANIM3gXgxx1LqlyaJRsRUIFAFMxeIvJJdS6ujoas3fv3nfv3mX1PMz9/PPPdEe6cuUKlW/cuOHm5qaQUElkZCQFxJqaGo328YATJ040NjZSmc4bHR3N+kxu+aRUeXm5u7v7sWPH+OEMHRgREUHhlQp0eExMzLhx44QdJBMq+6QUXYKPj8++ffsULkphfLnEKXddcv0BlBm8i0GOOpdUOTRKtiKhAoCpGLzF5BJqfHz8mDFj+K/jNa1/y79y5UpHR8eQkJCAgIAVK1YoJ9SioqKoqKju3bsHBQU5OzuHh4c3NDTQUH369CkuLmZ9eEIlBw8elPxdf2ZmZlhYWN++fV1cXChN5uTkCFsVEipJSUmhU7/xxhsKFyU3vlzilLwuhf4AygzexSBHnUuqHBolW1WdUNX5tDKA2bS5xaqqqpKSkuS+Z9QAZWVl165dY+8a6qO6ujorK0v4PKhhKBfyXGsK7R3fWNcF0OYuhvZS55Iqh0bJVlUnVAB4Ur744osXXnghODhY+N4hAADYJOXQKNmKhAoA5lNaWrp06VJ/f38PDw8/Pz/EUwAANVAOjZKtSKgAYA5ffPHF2LFjKZi6u7sHBASEhIQgngIAqIRyaJRsRUIFABPib5q6twjRQjwFAFAP5dAo2arqhKrOp5UBzCYxMTEwMJBSaVhYGE+oAABqps7soRwaJVtVnVDV+Y0PAGZDW6yqqmrnzp3PPffcyJEjf/WrX7E3Uz09PY8cOSLuDQCWB/+hNDp1LqlyaJRsRUIFAFMRbrG0tLS4uLjAwMApU6aEhYUhpAJYBfyH0ujUuaTKoVGyFQkVAExFd4vxt1T79evn7e199OhRUQcAsCi6uxgekzqXVDk0SrYioQKAqShsMfaWKj4yBWDhFHYxGEadS6ocGiVbVZ1Q1fm0MoDZtLnFjP5vSgGAcbW5i6G91LmkyqFRslXVCRUAAAAATE05NEq2IqECAAAAgAkph0bJViRUAAAAADAh5dAo2YqECgAAAAAmpBwaJVtVnVDV+bQygNlgiwFYO+xio1PnkiqHRslWVSdUdX7jA4DZYIsBWDvsYqNT55Iqh0bJViRUADAVbDEAa4ddbHTqXFLl0CjZioQKAKaCLQZg7bCLjU6dS6ocGiVbkVAN8dlnnyXoOHnypLgfgLoZvMUAwEJgFxudOpdUOTRKtqo6oRr8tPLkyZNDQ0PnCbi6uq5bt07cD0DdDN5iAGAhsIuNTp1LqhwaJVtVnVANRgl1+fLlwppRo0bxhPrw4cNLly5dvny5oaGBdygtLS0oKLh9+/b9+/d5ZWVlZYEOfpTuODRIbW1teXl5SkpKXl4eH4c1PXjwgJXr6+tpHPpTefzGxsYLFy6cPXu2urr6l4Fa052DpuVahOrq6lhTVVWVsJ4O50fRhFNTU3/66aempiZWIzm9srKyiooKfhQpLCzk4wMAAIDVUQ6Nkq1IqIZQSKjnz5/38fEZMmRIaGjogAEDMjIyWAeq8fLyospu3bpR+datW1S5Zs2aUC1HR0fWSrKzs+XGoZexsbF+fn5jx46lQzZv3txy/v9rOnDgACsvWLCAfjTHjh1TGJ/+DAwMDA4OpqFcXV2PHj3Kh+Ik56ARXAvj4OBw6NAh1hQXF9e7d29Wb29vf+rUKVb/2muv+fv7R0ZG0uSHDx/OMqjk9Oii6FzNzc3swPT09M6dO1MmZi8BAADA6iiHRslWJFRDyCXUxsbGkJCQVatWscpFixYNGzaMhS2eIB89ejR+/Pj33ntPdPj+/fv5S7lxaBBKb5WVlVR58uRJim65ubmsDx//xx9/dHNzo5hICbVlPPH4NNTo0aPXrl3LXh45coQOqa2t5R008nPQaM8lHI2mxBPq4sWLqScr9+rViyfUgoICVmhqapo+ffrq1avZS0Y4vfr6+j59+vDJL1myZObMmb90BQAAAGujHBolW5FQDSGXULOzs2lNysrKWCXFR3qZn5+v0aa6jRs3nj9//vDhw76+vl9//bXocGHmkxuHBtmwYQPvFhERkZiYyMosoVL+Gz58+O7duz09PRUS6s2bN2lAyriXWlCaPHfuHO+gkZ+DRjGhzp07l6+MMKFStD1+/Dj9bUlISIiOjqYFZPWMaHpvvvnmjBkzqEChmQb54YcffukKAAAA1kY5NEq2qjqhGvy0slxCTU1N7dSpE6+sq6ujJUpLS9NoUx2hA0eOHDl06NArV678crBORJMbh0bYtWsXr4+Kinr33XdZmSXUTz755JlnnqE4qJxQKZva29tPbu3MmTO8g0Z+DhrFhDp16tT4+HhWFiZUqqerXr9+/bZt2+bMmUPzYfWMaHqUhrt06VJaWrpnz57AwED+G3+wOgZvMQCwENjFRqfOJVUOjZKtqk6oBn/jg1xCzcnJoTUpLCxklVlZWfwl/y082bBhw+jRo/mxGp2IJjcODcJ/NU8GDx68fft2Vqamjz/+2NXV9dKlS/RSOaHm5eXRgLdv3+Y1uuTmoFFMqFROTk5mZZ5QKXFSIOYfEaNLUE6oZMqUKR988AGt0pYtW4T1YF0M3mIAYCGwi41OnUuqHBolW5FQDSGXUJubmyMiIhYuXEiFxsbGmJiYcePGsQ48oTY0NMyfP//ZZ58VHS56TlRyHBqEoidLlhQKu3btyhMkNXl4eCxdupS9VE6oJDIycsaMGTU1NRrt6U6cOEEnEnaQm4NGJqHW1dXRevbu3fvu3busnifUn3/+mf6qsLeNb9y44ebm1mZCPXLkSJ8+fbp06XLnzh1hPVgXg7cYAFgI7GKjU+eSKodGyVYkVEPIJVQqZGZmhoWF9e3b18XFhRJeTk4O60CpzsnJiUKbs7MzRb309HTR4aKIJjkODRIXF+fr6xsQEECj7d69m/enJurM02GbCbWoqCgqKqp79+5BQUE0pfDwcOH3STGSc9DIJNT4+PgxY8YIHxUQ/pZ/5cqVjo6OISEhNPMVK1a0mVApE3t5ec2ePVtYCVbH4C0GABYCu9jo1LmkyqFRshUJVUlVVVVSUlJJSYm4oS2U/4qLi8W17Scah0XD+vp6yo737t0TdDRQdXV1VlYW+3IAOca6lrKysmvXroneqZVDE+vZsyf+mS5r1+YWAwALh11sdOpcUuXQKNmq6oSq8LRySkpKVFRUUFCQ6PNDT5bozUtbdezYsdjYWNH7rGCNFLYYAFgF7GKjU+eSKodGyVZVJ1RdVVVV69ato2Dq7u7u6+trUfGULFu2jKKzuNbmTJs2bd68ef+/vTsBq6ra2wCOTALOIoKIEgIBojgrOYtdtSQ/87vOt7SrZqV8dvOm4QQypCmOkJppZmpa5pSamgOYaZLXHFAGBSScCUWcUETP9++sXHe7Jw6Hc+Qczvt79uOz99prr732wrV5zwj7owYAAABg7tRDo+xeJNS/UPLr06ePu7s7ZdNGjRqZ2rOnAAAAAGZKPTTK7rX0hMqfNG3QoIGblqenJ+IpAAAAgKGoh0bZvRadUA8cOODr60uptEmTJiyeAoABiaccAABYJPXQKLvXohPq4cOHCwoKli9f3qVLl1atWnXs2JH9WvXw8NizZ4+4NgCUkWV+IACgMsEsNjjLHFL10Ci716ITqvAbH5KTk8eNG+fj49O1a9cmTZogpAKUn2V+qQpAZYJZbHCWOaTqoVF2LxLqM/hTqu7u7gipAOUknWIAYF4wiw3OModUPTTK7kVClceeUg0ICMBHpgD0pjLFAMAsYBYbnGUOqXpolN2LhKpG778pBQAaHaYYAJg4zGKDs8whVQ+NsnstOqFa5ruVAZ4bTDEAc4dZbHCWOaTqoVF2b3kTav/+/RcAAAAAACiguFhqpDRwQgUAAAAAKJV6pDRYQs3NzV0EAAAAAKADio7iNKklGzj1T6gAAAAAAOUkGzgtOqFa5ruVAZ4bTDEAc4dZbHAYUinZwGnRCdUyv/EB4LnBFAMwd5jFBochlZINnEioAGAsmGIA5g6z2OAwpFKygRMJFQCMBVMMwNxhFhschlRKNnAioQKAsWCKAZg7zGKDw5BKyQbO0hMqiYyMpE36t5Ktjxo1SrYc61jHukHWDx8+LFuOdaxjHesWu47sIV3v06ePlR4JVXjAo0eP1jx15coVXn737t2MjAz8/XoTQT8I/mN68OCBeDcAAACAyZAGTk1ZE+qdO3eoxNHR0c/P79ChQ1SSn58/aNAgW1tbK63mzZsfPHjwv01ARUhOTqYfEP2Y6Cfyxx9/iHcDAAAAmAxp4NTol1A7derES2idlaxYsWL8+PFVqlRxcnLKyMjQaJ9wFXr8+DE/SrSLl1+7di07O/vevXtss6SkRFTzyZMnsjVFREfxU9M6tanRBuuioiJhfVYuWhcSdYb3hND65cuXaXAE1f9C/bx06ZJGcjhvQfZCWAVRN4QlrALfRWe/e/cu32S6deuGhAoAAAAmTho4NeVMqD///DNt1qpV6/bt26xk+PDhVEJRlYIRe1aV+9///V9Wp6CgQLTr/PnzVF6zZk22STF34MCBxcXF1apVe7ai1caNG2VrspYZpVOzck9PT/Z2h6pVq3755Ze83M/Pj9YnT55M6x06dBA2yNBlCtvcu3cvK//qq6/q1avHCnv27MnyKKGuNmzYkJX36tVL9lpkL0TYf6owcuRICqbCTv7rX/+i9YkTJ9L62rVrXVxcWAuDBg0SpmQkVAAAADB90sCpKWdC/fTTT2mzR48evMKKFSuopEuXLixRNWjQYM2aNVOmTLESJNQbN27QpqurK+3y8vKyeppQFy9efPz48dTU1CFDhlDhqlWraD0lJaVVq1a0+cMPP9B6YWGhbE3eAc3ThCc9NU9+0dHR69atc3JyopB67do1Hv7S0tLs7OysFBJqjRo1bG1tqc3g4GCrpwn11KlTNjY2lES3b9/O0u0rr7xC5WfOnKGmKF9+8cUXe/bsSUhIkL0W2Qth/aGRocZDQkJonTrGCn19fceMGUMrERERVPP06dPUpWbNmlEjc+fOpXIKr7zDSKhQ4fCnUwDMHWaxwWFIpaSBU1POhErBy+rZhPr5559TSdeuXYXP+SUmJloJEiqFQtps2rQprbdp08ZKm1CfPHlCGat79+5U7ubmRoWTJk1i9dkbCViK1WhfUleqySidmpVTMmbVqJA2v//+e16f4iDFTSu5hEonpV3Ozs60PnjwYKunCTUuLo7WP/roI432dXyKvPb29o8ePZo3b57Vs3mREV6L0oWw/jg6OtIwVqtWjYImfw6VoXLWGjtLYGAgden111+ndX9/f34uJFSocPhSFQBzh1lscBhSKWng1JQzoSq9yh8WFqYUE8lvv/1Gm5SfNIKEunr1aitt2N28efO4ceNofcKECay+KKGq1GSUTs3KKQuyaqKEam1tzXpuJZdQ09PTqbxFixYa1YRqr6VjQlW6ENYfFxeXOXPmdOzYkVJvUlISK6xSpUrbtm1phY7VPD17586dJz8VFRXFz4WEChUON2IAc4dZbHAYUilp4NSUM6GSLl26UAkFqc8+++y9995jn5Q6d+6cUkw8ffp0y5YtaZNlKZ5QZ8+eTStDhgyh/EoBkcc1jSShqtRklE7Nn4aMjo7++uuvqZ92dnb8VX4rbQBlSVSUUOnUrA+UBVetWtW+fXta//DDD69cuXLy5EnRq/x9+vShQ1JSUvir/D/++GNCQgJrSngtShfC+uPp6fnrr7+OGjWK1uPj4/lF3b9/n/rp6OhIp2av8vv7+x8+fPjUqVN0rrlz5/JuI6FChcONGMDcYRYbHIZUSho4NeVPqDdu3Bg6dCh7+yah9Pnzzz9rlGPiypUr3dzcPvjgA/apIJ5QL1++7OvrS+u1a9dmT1IqJVSVmozSqXnye+WVV2jF3t6eDufllK0p59FZrCQJlVLpn9cmwZ5Gpb3Ozs6spEePHrm5ueyoDRs2NGjQgJX36tWLFQqvRelCeGIm1atX79u3Lw2y8KIyMzPpEG9v71u3bq1bt87V1ZVVrlGjxqxZs9iJNEioYAJwIwYwd5jFBochlZIGTo1+CbVmzZqUtI4ePcrL7927l5WVVc4wVFJScvHiReGXUinRvaaQMOTl5+ffv39fx3crs4QqLKGzWwk+zv/kyZNLly7xtzoIXb16lX+6X0q/C5FiZ+HfRfXbb7/RD4h9UUA5fygA5aHjFAMAk4VZbHAYUilp4NSUNaEWFxfPferChQv/rWoOhAm1TCjwTZ06VVhSWFhIJZmZmcJC05Gbm8t/TBTExbsBAAAATIY0cGrKmlDNGsXrXbt2sT+FBQAAAACmQDZwWlBCBQAAAABTIxs4kVABAAAAoMLIBk6LTqh4tzKAUWGKAZg7zGKDw5BKyQZOi06o+MYHAKPCFAMwd5jFBochlZINnEioAGAsmGIA5g6z2OAwpFKygRMJFQCMBVMMwNxhFhschlRKNnAioQKAsWCKAZg7zGKDw5BKyQZOi06o+r1b+fHjx1u3bp00adKIESMmTJiwadOm8v9RKIBKSb8pBgCmA7PY4DCkUrKB06ITqn7u3Lnj5eU1ceLEefPmTZkyhdb79u375MkTcT0AAAAAKI1s4ERC1Ycwj2ZlZdEonT17lm3m5OQkJSXRpvCJ1evXr/O/Pnr37t1Lly7xXbL1CwoKjh49SuVXr17lhULU4MVnFRUVsV0PHz48ceLEyZMni4uLhYfQeYX17927R4U3b94UFjLsQHYK6urt27eF7ZSUlBw/fvyXX36hpM4LqTI1mJ+fn5iYSFckrEyNUJfY5h9//MGPKiwsvHbtGluX7Rujcjq+SaPELx8AAADMi2zgREItL8qCNjY2lKtofeTIkV5eXiEhIS+88ELbtm1v3LjB6rRo0WL9+vW0cvnyZR8fn9jYWFauVL9x48bt2rULDg52cHCYM2cOKxSiBj08PAKfsre337JlC5UfO3aMjqW9VOjt7X369Gl+SHx8vJOTE6tPza5atYoKp06dykocHR15g+np6cJTVKtWjdYvXLhAhbTL19fX39+/c+fOLi4uu3btYo1TheHDh9NVUDk1xftMUf6tt97q06cPS729e/em/1S0Qq01atSIjYlGoW8a1dOtWbOGrRO6Unb5AAAAYHZkAycSqp62b98+duzYQYMGUYT68ssvWSHLqRrte1UHDBgQHh7ONllCvXLlyosvvhgVFcUKVeqXlJSwlU2bNrm7u7N1IdmIRkcFBARMmjSJFb7zzjutW7fmT/fSz7F79+5svU2bNjwFMh06dBA2qBGk6kePHtGBM2bMoKYoNE+fPp1V2LZtm6urK3sukypTH27evEnrBw8etLOzy8rKYtWoV3RpgwcPpmtkCfXatWs0aJ999tlfZ1Lom/rppJfPNwEAAMCMyAZOi06o5Xm38qFDh2bNmjVx4sQmTZq88cYb7DV6ClX79u2jEYuOju7Xrx8FMlaZEtXChQv9/f1Hjx4tbESpvkb7bCiF4L59+4aFhQmO+ItsREtPT6efV15eHitkbz/Izc1lm9Rb3r6OCTU2Npa6sXXrVk9Pz507d2ZnZ1ODFEBPPFWrVq2jR4+yyjExMfxYaj8hIYFvPnjwwM/PjwI9dSAiIoIqiy5Ktm/qp6Ogf+wpDw8PJFTTVJ4pBgCmALPY4DCkUrKB06ITqkG+8SE/P79GjRobN26k9ddee61Vq1aRkZGLFy8eNmwYxT5WhxKVvb09xc2GDRuyJxoZpfokPDy8V69eFH/5S+FCsgk1KSnJ1taWFxYVFdGPLzk5mW2OHz/+zTffZOs6JlRCwbF9+/bUyZSUFAqL1tbWvZ915MgRVnnFihX82NDQ0GnTpvFNSvPOzs7Ujr0WHUWRV/j2Vtm+qZ8uKCiIFzo5OSGhmiaDTDEAqECYxQaHIZWSDZxIqAZAAXHevHlZWVmUqHjwmj59ujChUgijleHDhw8cOJAVqtTnzpw5Y2dnV1BQICqXTaiZmZn087p8+TIrTEtLE262a9du/vz5bF3HhMrDcUxMTHBwcE5ODjUo/JgXR5X5y/GkefPmy5YtY+v379/39fWlximae3l5DRkyhAqHDh06duxYXl+2b+qnk16+YD+YCkNNMQCoKJjFBochlZINnEioZXblypXly5ezN0SWlJQsXbrU1tb21KlTv//+Ow1XSkoKlZ8/f97V1VWYUFnau3XrVuPGjVevXk3rSvWLior459b37NlDCZV/DwAnG9GePHlC8Y6SH61QxwYPHtylSxdWYf/+/fb29vxtr2VKqMXFxaNHj+7YsSOth4SEUMK+e/euRvsWhQMHDrC3zFLlhg0bsjRJPXFwcODJeMKECf369WPrvZ9+Uio/P9/NzW3v3r0a1b6pnE56+XwTTId+UwwATAdmscFhSKVkAycSapldv349MDDQ2tq6Xr16VatWpfXvv/+e7Zo4caKjo2NAQICPj8/7778vTagkMTGxdu3a7KPxsvWzs7Pr1q3brFkzf39/Z2dnUZRklCJaampqUFBQ/fr16UCKepmZmRrtZ4ystWo9ZWNjQ+fdsWMHb0E2oTo5OVFl6i0lXYrgGm06Dw0NrV69up+fH5W3bNmSfUifKo8bN87T05MuhI5auXIla+TQoUM0Svw7s3hCJZs3b6b6GzZsUOmbyulkLx9MjX5TDABMB2axwWFIpWQDp0Un1FLfrVxQULB27Vr+tZ1C9+7dy8jIoLQqKs/Ly6Ny/mH8UsnWpxx27ty5rKws0Xea6oiCnfCLVDdu3Dhq1CjB/j+NGDFC71R3586dtLQ04RtqWWR88OABReTCwkJB3VLo0jfp6cBclDrFAMDEYRYbHIZUSjZwWnRCVbF79+4+ffr4+fmxj+aYtf3790dHR4sKIyMjk5KSRIV6Ez2pqbvn0DcAAAAwZbKBEwn1GTdv3pw0aZKPj4+bm9sLL7xQCeLp8xEWFpaYmCguBQAAACiNbOBEQv3L7t27e/bs2aBBA5ZN/f39EU8BAAAAjE02cFp6QuVPmrJsSry9vRFPAQAAAJ4P2cBp0Qk1ISHB19eXUqmfnx+LpwBgQPhAAIC5wyw2OAyplGzgtOiEGhcXV1BQsHz58q5du7Zp06ZHjx6NGjWiX6sNGzbcuXOnuDYAlBG+VAXA3GEWGxyGVEo2cFp6QuXrycnJ48aN8/X17dmzp5+fH0IqQPnhRgxg7jCLDQ5DKiUbOJFQn8GfUnV3d2/UqNHu3btFFQBAd9IpBgDmBbPY4DCkUrKBEwlVHntKNSAgAB+ZAtCbyhQDALOAWWxwGFIp2cBp0Qm11Hcrq/xNKQAoValTDABMHGaxwWFIpWQDp0UnVAAAAACoWLKBs/SE2r9//wUAAAAAAEZAUVOfhAoAAAAAYFRlSKi5ubmLAAAAAACMjGKnMIWqJdRKD+9WBjAqTDEAc4dZbHAYUh1ZdELFNz4AGBWmGIC5wyw2OAypjpBQAcBYMMUAzB1mscFhSHWEhAoAxoIpBmDuMIsNDkOqIyRUADAWTDEAc4dZbHAYUh1ZdELFu5UBjApTDMDcYRYbHIZURxadUAEAAADABCGhAgAAAIBpQUIFAAAAANOChAoAAAAApsWiEyrerQxgVJhiFevhw4fiItDCyOgOs9jgMKQ6suiEim98ADAqpSm2cePGb775RliyatWqnTt3CktAP1u2bHn55ZddXV3t7OzGjx8v3m3BMDL6UZrFoDcMqY6QUAHAWJSm2FdffVW9evXCwkK2efHiRVtb2127dj1bC8osISHBzc1t/fr1169ff/z4sXi3BcPI6E1pFoPeMKQ6QkIFAGNRmmIPHjyoX7/+woUL2eaUKVN8fX2fPHlC6YHS6qVLl27fvv3sEZqSkpLjx4//8ssvd+7cEZbfvXv3osC9e/f4rocPH544ceLkyZPFxcW8kE5x5coVvklhhY66efMm33v//n22Tp2kXfQv7RWegmFtUn3hGZXI9kRI1M7Vq1eLiorYutKFS9ukCtWqVTt27NhxLeo5K6croiHlB1LL1H+e0qTtMEoDKztErFxlYDXKJ6Ka586dS0pKovq0qT7asqcWETWoUR4ZRtox9uPIz89PTEzMyckRVhb2gYaID6wufSsoKDh69Ch1jH6+wnI6BRWePXtWGJ2VTqRRqF+mxstEaRaD3jCkOkJCBQBjUZliU6dOZamUfpG7uLgsWrSIClu0aOHh4REYGEh5gtYvXLjAKqenp1Nlf3//zp07U2Xhs63x8fFOTk6BWg4ODqtWrWLlFEcaN25MjVC5t7f36dOnWTmVVKlSJSMjg21+9913VlZWI0aM4HvXr1/P1seMGUO79u7dS11l7Ts6OrLuEeoSq79mzRpWX4lST4RE7VC1LVu2aJQvXLbNQ4cOUQ+bNGnStGnTli1bUleTk5M12uzywgsvLFiwgB372muvvf766yrtMEoDKztErFxlYJVORPWpq56enj169HBzc9u6dav6aMueWkjaoEZ5ZDQKHaPN4cOH06DRsNOBc+bM4e3zPly+fNnHxyc2NlZUrlHuG52oXbt2wcHBNJ68zZEjR3p5eYWEhNDp2rZte+PGDVaudCKl+mVqvExUZjHoB0OqI4tOqHi3MoBRqUyxi09f2afow1/x57+VHz161L179xkzZtA6pVj6vTt9+nR24LZt21xdXflTehRtqSZbb9OmDQtSJSUlAQEBkyZNYuXvvPNO69atqR2N9hT0izwsLIzt6tatW/v27aUJ9ddff6Wz1KlTR5gzOnToIMqjomQppdITIdmEqnThSm1SVykYvf3226z8o48+onRLI0nrFMgo9NNFzZs3j8IKZVZNaX2THViN8hCpDKzSiQgdMmrUKPb0HlW7desWq6NRGG3ZU3NKDSqNjFLH6ET0I2BPAB88eNDOzi4rK4vVYX24cuXKiy++GBUVxQp5uUa5bxptf9jKpk2b3N3d2Tp/opf6PGDAgPDwcLapdCKl+mVqvExUZjHoB0OqI4tOqABQgf7+97/37duXMsG4ceNYCf1Wjo2NPXbs2NatWz09Pdlnp7KzsyleUFA48VStWrWOHj3KDpk1a1bv3r3ZOg9S6enpdEheXh4rp3hBm7m5uewUn376acOGDe/cuXP69GnanDhxoiih0q/ztm3brly5kqqVmlApPVCH6YzSV3U1qj0R4u0wHh4elFCVLlypTapJK+fOnWPlN27coE3+bOX8+fPpciin8qcPldphm7IDq1EeIpWBVTpRZmYmrQjfGyAkO9qyp+aUGlQaGaWO0YliYmL44XT5CQkJbJ12LVy40N/ff/To0bwCK1fvG0M/3O3bt9N/ex7lKRDv27ePHg9ER0f369ePj7nSiZTqa8rSOIBZQEIFgIqRlJREgaBKlSppaWmspIUW/R5t3759q1atUlJSNNp4YW1t3ftZR44cYYeMHz/+zTffZOs8SFHLtra2rFCjfeclnYglsxbaZyvfe+89ilNjxoz5/PPPpQl16dKlL730Ev121yWhBgUFsQ47Ozuz15SFVHoixNthnJycKKEqXbhSm8ePH6eVu3fv8l0ODg579uxh65cuXbK3t+/cuTPfq9QO25QdWI3yEKkMrNKJ6AKF5SKyoy17ak6pQaWRUeoYnWjFihW8PDQ0dNq0aWyddtEwUgqkswvfZVtq35jw8PBevXo1adKEPeGq0b7pgv6rR0ZGLl68eNiwYXTVrFzpREr1NWVpHMAsIKECQIXx8fH529/+xjfZr3m2HhMTExwcrNF+1INyg/CTIkLt2rWbP38+W+dBij2XdvnyZVZOCZhvsiCVmprq6+vr4eFx//59UUKNj493cXE5ceIEbeqSUHkJdbhly5bCvRrVnggJ29E8fZVf6cKV2rx16xatnD17lpVfvXqVb5aUlHTr1o0ySqNGjShBqrfDNmUHVqM8RCoDq3QidoGijyJxsqMte2pOqUGlkVHqGJ2Iv7mCNG/efNmyZWyddrFvqho+fPjAgQN5nVL7JnTmzBk7O7uCgoKsrCx6EMI/F0gnFSZU6YlU6nO6NA5gFpBQAaAC0G/QpKQke3v77du380KeUIuLi0ePHt2xY0dWHhISQr+k2XNgT548OXDgAHvX3f79+6kF/mY7HqSoDq2PHTuWVqjm4MGDu3TpwurwLDh16tTly5fTiiihNmjQgH9Zpu4JlXWYn4VT6YmQbELVKFy4Spu9e/ceOnQoqzNmzBhqlr0jc9q0ac2aNaPU+PPPP1erVu3kyZOsQaV2lAZWozxEKgOrcqLu3bsPGDCAfWidspTwBXrZ0ZY9tZBSg7Ijo9Qx2kuNs8cG9INwcHDgKZb/F6XU27hx49WrV/Ny9b4VFRXxb2PYs2cPhUjq5O+//06ZmL1WcP78eVdXV2FClZ5IqX5ZGwcwCxadUPFuZQCjUplinTt3rlmzpvTNfE5OTrVq1apduzZlhVOnTrFyyhmhoaHVq1f38/OjXS1btqREuG3bNmutWk/Z2Ng4Ojru2LGDDklNTQ0KCqpfv76zszOlkMzMTH4KUe4RJVQ6hH9eR5eEKuyw7Of0lXoipJRQZS9co9xmTk4Oe78B7QoMDDxz5gwV7tu3r0aNGnQIqxMbG0utsUAj2476wCoNkfrAyp6I5Obm9ujRgy7wxRdfrFOnzo8//sgPlx1t2VMLKTUoOzIahY7RicaNG+fp6enj40M/35UrV/L2eXAkiYmJ9ENh3zhRat+ys7Pr1q1LjxP8/f3pXDzx0yjR2AYEBNC53n//fWlC1Tx7Itn6ZW28TFRmMegHQ6oji06o+MYHAKMy7BSjUJWWlsbfk7dx48ZRo0Y9W0VDkYhlO4YSnujrIStKeXoiunBOqc1r165J30igQtSOLgOrH6UOFxQUpKen6/LNsjpSalBpZEQdY2n7wYMHlF/535UoP3p0ce7cuaysLNE3wubl5WVkZPAP45dKtn5ZG6ehWLt2LftWB3WGncWgwZDqDAkVAIzFqFNs//790dHRosLIyMikpCRRIZQJBlb6fHCldOTIkYCAgP79+wufupYy6iy2TBhSHSGhAoCxYIqBOQoLC0tMTBSXVkYUUr28vBo0aODr6zt58mTZp1Qxiw0OQ6ojJFQAMBZMMQATRyG1adOm/v7+bm5u7u7uL7/8sugpVcxig8OQ6siiEyrerQxgVJhiAKaPhdQWLVq4aYmeUsUsNjgMqY4sOqECgFGxX3gAYI68vb0PHDggntUAzwsSKgAAgOU6cuRIkyZNWCr18fFp2rTpSy+9tHz5ctm3pQI8N0ioAAAAForH06CgIC8vr3fffVf6V3kBKgQSKgAAgCWieNq4cWN3d3c8aQomyKITKt6tDGBUmGIAJot9H2qpT5piFhschlRHFp1Q8Y0PAEaFKQZgmvA3pSoQhlRHSKgAYCyYYgDmDrPY4DCkOkJCBQBjwRQDMHeYxQaHIdUREioAGAumGIC5wyw2OAypjiw6oeLdygBGhSkGYO4wiw0OQ6oji06oAAAAAGCCkFABAAAAwLQgoQIAAACAaUFCBQAAAADTYtEJVe93K3/99dfREgcPHhTXA7Bsek8xADARmMUGhyHVkUUnVL2/8aF3796BgYGjBFxcXCIiIsT1ACyb3lMMAEwEZrHBYUh1hISqD0qoEyZMEJZ06NCBJ9SHDx+eOHHi5MmTxcXFwjp37969KHDv3j0qvHnzprCQYQdev36d1i9dunT79m1hO6SkpOT48eO//PLLnTt3WAlVpgbz8/MTExNzcnKENakR6hLb/OOPP/ghhYWF165dY+uyfWOk59I8PR3fvHr1alFREd91//59tv7gwQNqjf5lm7JNSYkGsNQhEhJ2Q3ZACG0mJSWdPXv28ePHvFBptAsKCoTt85HUKFyOysgo/ceoxPSeYgBgIjCLDQ5DqiMkVH2oJNRjx441bty4RYsWgYGB3t7ep0+f5nXi4+OdnJwCtRwcHFatWkWFU6dOZSWOjo4eHh5sPT09nXZRI6ykWrVqtH7hwgXWDu319fX19/fv3Lmzi4vLrl27WOXhw4e/8MILVEhNzZkzh1V+8uTJW2+91adPH5aKqOcLFiygFWqtUaNG69evZ9Vk+6Z0Lo32dGvWrGHrhK50y5YtfBdvdsyYMVZWVnv37tUoNyUiHUBdhoixt7cXdkN2QEaOHOnl5RUSEkK72rZte+PGDV5fdrTHjRtXp04d1r61tfWhQ4dYudLlKI2M9Lp4nUpM7ykGACYCs9jgMKQ6QkLVh1JCLSkpCQgImDRpEit85513WrduTRmRbS5atKh79+5svU2bNjwFMtSCMNloBFHv0aNHdOCMGTM02sQZHBw8ffp0Vmfbtm2urq737t2jypR7bt68SYUHDx60s7PLyspidahXAwYMGDx48OPHj1lCvXbtGqWrzz777K8zKfRN6Vwa5RzGdrFu//rrr1Sf4h0lVJWmhNQHUHaIVLohOyAXL15kFWg0aFjCw8N5felok3fffZe6wdZr1arFEqrK5ch2Sf26KjG9pxgAmAjMYoPDkOrIohOq3u9WVkqo6enpVlZWeXl5rJAiEW3m5uayzVmzZtGBbF3HhBobG3vs2LGtW7d6enru3LmTCrOzs6lNilwnnqLYdPToUaocExPDj6X2ExIS+OaDBw/8/PzGjh1LHaB+UuWwsDC+V6PQN6VzabR9i4qKOvaUh4eHKKFS/mvbtu3KlSsbNmxICVWlKSH1AZQdImkc5LtkB4Ry4b59+yiRR0dH9+vXj1+17GiTt956i/+seUJVuRzZkVG/rkpM7ykGACYCs9jgMKQ6suiEqjelhJqUlGRra8sLi4qKKIgkJyezzfHjx7/55ptsXceESuhc7du3b9WqVUpKikb7dKC1tXXvZx05coRqrlixgh8bGho6bdo0vkm5ytnZmdqx16JDKIQJ33Ap2zelc2m0fQsKCuKFTk5OooS6dOnSl156ieIgS6gqTQmpD6DsEKkkVNkBee2112gwIyMjFy9ePGzYMGqT15eONqtPiZOt84SqcjmyI6N+XQAAACCChKqP3goJNTMzk5LH5cuXWWFaWppws127dvPnz2frOiZU/obOmJiY4OBgjfZTPtTmpUuXhDU12sr8RWfSvHnzZcuWsfX79+/7+vpS4zdv3vTy8hoyZAgVDh06dOzYsby+bN+UzqUpLRrGx8e7uLicOHGCNllCVWlKSH0AZYdIpRvSAcnKyqJkyaM5VRAmVOloa7Rtbty4ka3zhKpyObJdUr8uAAAAEEFC1YdSQn3y5AnFO0p+tFJSUjJ48OAuXbqwCvv377e3t+dvgixTQi0uLh49enTHjh1ZeUhIyMCBA+/evavRvmZ94MABOhdVpizIMhNFIgcHBx6AqKv9+vVj672fflIqPz/fzc2NfYZJpW+y59Io5DC2TrsaNGgwfvx4tskSqka5KSGVAdQoDJFKN6QD8vvvv1M0ZM+Pnj9/3tXVVZpQ+WgXFRXFxcXVqVPn1q1brA5PqBrly5Htkvp1AQAAgAgSqj6UEiqtpKamBgUF1a9f39nZmUJJZmamRvtJGmutWk/Z2Ng4Ojru2LFD2II0fjk5OVHl2rVrU6A5deoUK79y5UpoaGj16tX9/PxoV8uWLSlUUeVx48Z5enr6+PjQUStXrmSVKVHVq1fv6tWrbJMnVLJ582aqv2HDBpW+yZ5Lo5DD2DrtosvnqY4nVKWmRGQHkJEdIpVuyA7IxIkT6eoCAgKo/P333xcmVNFoR0VFderUSfhWhFqChKp0OUpdUrkuAAAAELHohFrqu5ULCgrWrl3LvzRUdxRfeCgkGzduHDVqlGD/n0aMGMHjlB7u3LmTlpbGPquueRqMHjx4QEmosLDw2bpqdOmb6FzloWNTogHUg8qA5OXlZWRkSJ/B1YOOl8OV/7rMS6lTDABMHGaxwWFIdWTRCVXlGx+Sk5OHDRvm5+cn/TSPHvbv3x8dHS0qjIyMTEpKEhXqTfTUne6eQ98qhN4DAgakMsUAwCxgFhschlRHSKjPKCgoiI+PDwoKatCgQePGjQ0ST5+PsLCwxMREcakFw4CYAukUAwDzgllscBhSHSGh/iU5OXno0KGNGjVq2LAhxVMfHx8ziqcApgk3YgBzh1lscBhSHVl6QuVPmnp6erppIZ4CGApuxADmDrPY4DCkOrLohJqQkODr68uCKQAYHD4QAGDuMIsNDkOqI4tOqBrtG0+XL18eHBwcEBDg7e3Nfq16enryLxUCAAAAgOfM0hMql5yc/O6773p5eTVv3hwhFQAAAKACIaE+gz+l6u7u7uHhgZAKAAAA8PwhocpjT6n6+/vjI1MAAAAAz5lFJ9RS362s99+UAgCNDlMMAEwcZrHBYUh1ZNEJFd/4AGBUmGIA5g6z2OAwpDpCQgUAY8EUAzB3mMUGhyHVERIqABgLphiAucMsNjgMqY6QUAHAWDDFAMwdZrHBYUh1ZNEJFe9WBjAqTDEAc4dZbHAYUh1ZdEIFAAAAABOEhAoAAAAApgUJFQAAAABMCxIqAAAAAJgWi06oeLcygFFhigGYO8xig8OQ6siiEyq+8QHAqDDFAMwdZrHBYUh1hIQKYCkKCwvnzp0XGzs7OnrW81nCwj6QFhppiYmZTVdH1yi+bADLQP/558yJo4kgnR3lWYwziz8+ePAn8QU8iy5n3rz5sbGfSI41+8U4Q1rBC/2k4uIMfAe26ISKZ9rBosTFzT97Njc391ZlXejq5s6dL75sAMvwySdxZjTBv/rq2/XrN4ivQWD+/AVpaRelB2Ix2SU1NZceVIh/kOVg3IR64cKFY3KKiorEVQHAyOhhrvSeUsmWqKhZ4ssGsAwREbHSGWHKS1RUjPgaBGJjZ0sPwWLiC/2WEf8gy8G4CXXEiBHW1tbVBBwdHa2srNLS0sRVAcDIZs78WHpDqWQLXaP4sgEsw4wZMdIZYcoLZVDxNQjExCChmt9i2OcIjJ5Qu3XrJiw5dOgQEipAhUBCBajEkFCxVPhS2RLqF1980b179xYtWrzxxhvnz5/n5QcOHBgsMG3aNFYeExPz9ddf82rczJkzu3Tp0rx58969e3/33XfCXbKnoHZYy9TJ2NjYvLw8Xp86SYXt27fv2LHjxIkTCwoKqHDFihXC/jB0UnbIjh07+vbt27Jly4EDBx4/fpw3pSn7hQAYCRIqQCWGhIqlwpdKlVAXLVrk6Oi4YMGCXbt29evXr169ejdu3GC7Pv/8c9pcrzV06NAOHTqw8p49e06ePJmtC1EjGzZs2LNnT0REhI2NzdGjR1m50imoHdqkxleuXPnSSy81a9aMNzV//vy4uLgff/xx69atnTp1ouBLhceOHWOdCQ0NbdWqFVvfv3+/RpuAq1evPnv27H379tHZ6XSnTp3irZX1QgCMBAkVoBJDQsVS4UvlSaiPHj2qU6fO3Llz2S7a9PT0nD59OttcsmSJt7c3W581a5buwa6kpMTd3f3bb7/VqJ5C2M7u3bsp1BYXFz9t47/++OMP0ZO+EydO7Nu3L9+kNl1cXBYvXsxLRo4cSUmUb+p9IQCGhYQKUIkhoWKp8KXyJNTz58/TekpKCt/7z3/+MzQ0lK1TrOTPa4qCXXBwMGU7CporVqy4efMmKyfr1q0bPXp069at3377bRY3VU7B2wkLC/P3958//79fkZCXlxceHt6jR4/mzZsHBgZWqVLlhx9+4HtFCZUap1O88847ERERM2bMoF716tUrKCiIV9DjQgCMAQkVoBJDQsVS4UvlSagnT56k9aysLL53/PjxlAvZ+gcffPDyyy+zdVGwozapZObMmZ06dXJzc7t69SrbtX//foqDgwYN8vb2Zu83VTmFqJ2QkBD+HVjt2rV79dVX9+zZc/r06dTUVDs7uy1btvAWRAk1OTmZTvHhhx/OEliyZAmvoMeFABiDekLNysrbuPGHhQs/++qr7379NU1awSwWJFSwWOoJ1QQnuH4J9ciR0zt2JEqX8+evSSub+7Jkyapvv91JK0lJ/5k9e5G0gqktlSeh3r59u0qVKlu3buV7u3btOnr0aLZOB/773/9m66Jgx18cf/jwYdWqVdesWcM2ud69e0+YMEGjegppO+vWraN1ionUw4yMDLaLVmhTJaHeuHHD2tpa9NksofJcCIABqSTUlSvXu7q6Va9evVWrtv7+TW1t7fr27f/77wXSmia+IKGCxVJJqKY5wfVLqH//+1D6nesk4ODgQL+mExN/lVY292Xr1r3u7g0HDBjcuPELq1ZtkFYwtaXyJFQydOjQFi1asOcO165dS2kyOTn51q1blORsbW1PnjzJqskGO0p1lAuptYMHDxYVFfEP6efk5DRu3Ji/91T2FLLtsI893bt3z87ObunSpRrtX13r1asXHaKSUMkbb7zRpEkT/umo1NTUvXv30ooeF8J2ARiDUkKlx+g2NjajR7/Hn4T49de0/v0HZmfnSyub+IKEChZLKaGa7ATXO6EGB3cSlmzatLuyJlRajh49++WX3xw6dEK6ywSXSpVQr1+/ThXo8VDt2rXpkdCCBQs0f/7ptk/at2+/Y8cOfpQo2FlpUY709vZmh+Tn59esWbN+/fqenp5UPnjwYP6SvewppO0I34caHx9vb2/v5vbnI8558+ZVq1ZNPaHevXv3rbfeoiRat25dqkz/Llu2TKPXhQAYj1JCbdWqbWBgkNITKh9+OG3JklVsPTPz+sCBw8aODeN7V6/e+PLLfQICAjt27BobO49K5syJf+21AaLlgw/CWX261YaE9A4MbN63b/8ffjgoPAtVO3AgmZdERMyikl27fsrV/gaiX0stW7Zp06bD22+PP3Pmd15NtCChgsVSSqi6T/D9+4/+z//8fdeuQ2xzw4btwln8f//3IStXn4+JiceERw0e/A/pSdlivIRa1p6X9a6Vk3Pzvff+FRU1h1XYsSORX2Zq6kVaX7NmE9uk4Y2PX8E7Ro8WRo58W3YXW1at2vDuu+/zCir3XuEibIqNf3b2H2zzo48iFi1aztaVhmXatJi4uE/Z+ubNu199tR9dbM+efb75Zgc/BY1G+/Yv+fs37dat57JlX/Fy0WJOCVVHFy9ePH369L1798Q7yqKkpOT8+fNnzpy5deuWeF/ZT0GNpKSkFBYWincou337Np0iJyeHeiLeB2ACZBPqqVPZVapUiYyU/2VAS6dO3cLC/s3W//Wvj6jyiy/6s81PPllsa2s3fvzEr7/eSvdHdmOlm3VCwkpa6AZHvxfZ+oYN39MuugnSQ7jw8Mj167dRUw4ODnv2HOZnoQeQw4aNZJv0m6N27To2Njbsha0ZMz6me+i6dVtWrPi6bdtgulGKOskXJFSwWLIJVfcJTo8P69WrT9OT76IJXreuM5vClFwp6bJy9fnI8uLChcvoqFGj3q1Ro6b0pGwxXkIta8/1uGv99NNvNFzR0XNp/fPP17HLPHfuGrVJZ6QIy1qm4eWJk5Z585Y0bNhIdhdbpk6Nbtq0Ga+gdO8VLcKm2Gjw58spUFIWZ+tKw9Kr16sjRoyhle++28Webl+7djP9a2tru2XLj6xORMSsTz/9gsqpJ1Rn27Z9oj6wpRImVAB4DmQT6q5df76s8cUXiu9w4nfJw4dPUYikx/HsLkmP0SlE8qcZpAvdFkNCevPN7Ox8Z+d6M2d+wkuoKbpLsnU6C23WqlWbPatBt2natLevKn3r1cmTWaLfRsIFCRUslmxC1XGCJyYec3FxnTRpunBXbOw8T08vtv7RRxE80AgX6XykYEcl7Dm8ZctWV0hC1a/nuWW8a+3e/TPdAxctWs4SKlWmY2nhz1/mSmKofglVdO+VLjomVKVh4Qm1Y8eur77ajzf7yiuvdenSg2+y5cKFG66ubkuXfikqZwsSKgDoQzah7tlzmG5nKq/a8Ltkz559/vGPf0ZFzWF3yR9/PEIH8idBpYvoXr937y9Un1qgh+Dvvz95woRJXbuGBAQE8rPQHXbAgMHTp8fm5Nxs1Mjzhx8O8oR64kTmuHEfdOzYxd+/KZ29SpUqq1dvlJ4xFwkVLJhsQtVlgvft279+fbeGDT2E0SpXm5b8/ALYujDQqM9Himu2tnZsvaISqn49zy3jXYuWN98cbWtrO3Tom9Wr1+jffyBV5u+RYAsNb+vW7ejmxpaQkF7ChMp2UbNz5sSnpOTkKiRU0b1XuuiYUJWGhRIqtTx8+FtVqzp88sli3uzs2Yvq1nXmm4sXf05X2qxZi2HDRor+q/AFCRUA9CGbUNPSLtvY2EyePEO6iy3sLklJkW5Vp09f4HfJ7dsP0H3wp59+kx7CFtG9/vvv91v9+c3B/0d3Rr6wt66ys9AdlurQQ3z6DdemTQcq5Am1RYvWdGdfu3YzxeIDB5Lp9x/VkZ4xFwkVLJhsQtVlgtPEpNnn4+P33nv/Eu4aM2Zc587d2bow0KjPxxkzPm7c+AW2XlEJVb+e55bxrkWPoh0dHSMiZtnZ2VM1im6UIyl0Xrhwg7dAw0u95ce++ur/CBMq2/XBB+Ft2wa7uLgeP54hTajSe6900TGhKg0LJdR27YLpQuiWSzGUN7to0XIHBwe+uWHD99S90NDX6S6tdOdHQi2v1NT0uLiF9JssMvJj+nfu3IVnz6aLKwFUOrIJlRa6Izds6JGZeV1YyDfp3kc3OPqVwx5b87skPeK3trbmb+SXLqJ7Pd1hqb7Sczn8DtuyZZt69eonJKzMfZpQ6a5NN9ykpP+wmrRCm0ioACKyCTVXhwn++uuDcrV5q2pVh+++28XrUH7iH83hgabU+dinTyh/HbyiEqp+Pc8ty10rKyvP37/pxIlTcv+87cymoTtxIpNyYZMmPuHhM3k1YXbMVX6Vn1qj293ChZ+JEqrsvVe66JhQZYclV/AqP51a+Cjl3Xcn8OdchQu1+c9/viMtz0VCLY+LFy9PmTKDfvmlpl7kA0rrVBIeTg8xL4kPAKhElBIq3anpt0hISC/2Ufrs7Px167YEBgaxL6Ohe1/NmrXoXsY+Cyy8S/bvP5AeTO/bd5QdRXdGYbOiez0tAwYMobstf2MAne7rr7eydX6H3bjxh/HjJ7KXkFhCzci4amtr9/HH83O1s7Vr15AqVaogoQKIKCXUUic4/zjO5MkzKD/RLDt7NpcSjK2t7e7dP7NdPNCoz0e6CdDetWs3s83nn1D17jlbdL9r0aDxMeSflKJly5Y9jo6O/GtJdEmoFE8pBNMl0N1PlFCV7r2ipdSEqjIsuYKEGhk5u1at2uz7CnbuTKKzs/fgUmv8SdNffkmhBzzUT3524YKEqqf//Oe38PAI+q8gHdNc7X+Rjz6acezYb+LDACoLpYRKC6VMusdZW1tXrepgY2Pj4uLKP9LLyuluxTaFd8nU1Euhoa/TXb5uXWc7O/uePfsI25Te69PTrwwaNJzukrVr13FycqJ/Z81awM8ivI+zhb/KTyel9qlX1apVmz49lo5FQgUQUUqouaVNcJ5Qc3JutmsXTJksPHxmy5ZtvvzyG96CMNAozUeKblZyqIK0S7nGSaj69ZwvOt612Ov7PLYKE2qu9sX0Fi1as9f61RMqGx/KzfRQPyJiVq7kfahK917RwpuSRRelPiw8oVLgHjz4H9pv56xD/w4d+iaL4KdOZVevXsPZ2YU6T7197bUBSn/BCwlVH5cuXaZ4Kh1N0RIePuPiRTyTCpWTSkJlS0pKzo8/HvnPf9Klu1QWunnRnfr48QzpLtmFci2dhR6IC9+tVepy9mzu3r2/CF/9kF2QUMFiqSRUtug3wWUX2flICZWikqjmmTO/GzahlnOR7Xmpi353LTNd6Ja+e/fPp09fEBbShf/002/0UIcGUHoIX5BQ9TF16gylZ0+FC9WZMmWG+GCASqHUhFoJFiRUsFilJlRjL99+u7NXr1dFhRRo3NwaSCvnVlBCxWLUBQm1zDIyzi1dqvh5DtGyZMmq9PQMcRMA5g8JFaASq/CEWtYFCbXyLUioZbZ4cYLuT+lTzUWL4sVNAJg/JFSASgwJFUuFL0ioZfbxx//9gxC6LOrTBsBMIaECVGJIqFgqfEFCLbOyJlSaGOImAMwfEipAJYaEiqXCFyTUMps1q2wJlRKtuAkA84eEClCJIaFiqfAFCbXMPv300zK9DzU+/lNxEwDmDwkVoBJDQsVS4QsSapmdO3duxQqZv1omuyxfvprqi5sAMH9075D+h69ki2HvjwBmJCIiVjojTHlRf7mS8qv0ECwmvkRHG/IObBEJlURGzszO1un7UCMiIsUHA1QKcXHz1b9s2dwXurq5c+eJLxvAMsyeHWdGE3z16m83bdosvgaB+fMX6P7iJxZTWOi/37x588U/yHKwlIR65cqVyMgo6YCKlhkzoqim+GCASqGwsJACXEzMbHqYW/kWui66OrpG8WUDWAb6z//JJ3FmMcGjoj5OSvpJfAHPosuhB9WxsZ9ID8diggv9x4uLM/Ad2FISKjl58uTMmdEXLvwhDaa5f/452ryIiCiqIz4MAAAAAJ4vC0qoGu0zqVFR0StXrs7IuMyzKa2vWPFlVBSePQUAAAAwCZaVUJnz588nJCTMnTt35MiR9C+tU4m4EgAAAABUEEtMqFxcXJy4CAAAAAAqGhIqAAAAAJgWJFQAAAAAMC1IqAAAAABgWpBQAQAAAMC0IKECAAAAgGlBQgUAAAAA01I5E+o333wTp4MBAwaIi+RQa+ITAAAAAIDRVM6EqqM4PIcKAAAAYHqQUAEAAADAtCChAgAAAIBpQUIFAAAAANOChAoAAAAApgUJFQAAAABMCxIqAAAAAJgWJFQAAAAAMC1IqAAAAABgWpBQAQAAAMC0IKECAAAAgGlBQgUAAAAA04KECgAAAACmBQkVAAAAAEwLEioAAAAAmBYkVAAAAAAwLUioAAAAAGBakFABAAAAwLRYbkK9f//+kCFD6F/xDgAAAACoUBaaUB8/fjx9+vSzZ8/Sv7Qu3g0AAAAAFcdCE2pcXNy5c+dohf7Fa/0AAAAAJsUSE+rq1asPHz7MN2mdSgT7AQAAAKAiWVxC3b1796ZNm0SFVELlokIAAAAAqBCWlVBPnjy5ZMkScakWldNecSkAAAAAPHcWlFAvXrwYHR0tLhWgvVRHXAoAAAAAz5elJNTCwsIpU6YUFxeLdwjQXqpDNcU7AAAAAOA5soiEqnv01CXIAgAAAIBRWURCLdPL96W+GQAAAAAAjKryJ1Q9PgKl8oEqAAAAADC2Sp5Q9f4aKdkvpQIAAACA56AyJ9RyfhW/6Iv9AQAAAOD5qLQJ1SB/zpT/cVQAAAAAeG4qZ0LNy8ubPn3648ePxTvKiFqgdqg18Q4AAAAAMJrKmVBXrVp1//59caleqB1qTVwKAAAAAEZTORMqAAAAAJgvJFQAAAAAMC1IqAAAAABgWpBQAQAAAMC0IKECAAAAgGn5f+mZsIRlJNGVAAAAAElFTkSuQmCC;" vertex="1" parent="WIyWlLk6GJQsqaUBKTNV-1">
          <mxGeometry x="1110" y="1420" width="907" height="814" as="geometry" />
        </mxCell>
      </root>
    </mxGraphModel>
  </diagram>
</mxfile>
